<svg width="140" height="140" viewBox="0 0 140 140" fill="none" xmlns="http://www.w3.org/2000/svg">
<g filter="url(#filter0_f_0_1)">
<rect x="5" y="5" width="130" height="130" rx="18" fill="url(#paint0_linear_0_1)"/>
<rect x="5.5" y="5.5" width="129" height="129" rx="17.5" stroke="url(#paint1_linear_0_1)"/>
</g>
<rect x="8.37012" y="8.37012" width="122.778" height="122.778" rx="16" fill="url(#paint2_linear_0_1)"/>
<path d="M39.8256 81H37.0302L43.3114 63.5455H46.354L52.6353 81H49.8398L44.9052 66.7159H44.7688L39.8256 81ZM40.2944 74.1648H49.3626V76.3807H40.2944V74.1648ZM60.8065 81H55.1559V63.5455H60.9854C62.6957 63.5455 64.1644 63.8949 65.3917 64.5938C66.619 65.2869 67.5593 66.2841 68.2127 67.5852C68.8718 68.8807 69.2014 70.4347 69.2014 72.2472C69.2014 74.0653 68.869 75.6278 68.2042 76.9347C67.5451 78.2415 66.5906 79.2472 65.3406 79.9517C64.0906 80.6506 62.5792 81 60.8065 81ZM57.7894 78.6989H60.6616C61.9911 78.6989 63.0962 78.4489 63.9769 77.9489C64.8576 77.4432 65.5167 76.7131 65.9542 75.7585C66.3917 74.7983 66.6104 73.6278 66.6104 72.2472C66.6104 70.8778 66.3917 69.7159 65.9542 68.7614C65.5224 67.8068 64.8775 67.0824 64.0195 66.5881C63.1616 66.0937 62.0962 65.8466 60.8235 65.8466H57.7894V78.6989ZM84.2887 69.0597C84.1239 68.5426 83.9023 68.0795 83.6239 67.6705C83.3512 67.2557 83.0245 66.9034 82.6438 66.6136C82.2631 66.3182 81.8285 66.0937 81.3398 65.9403C80.8569 65.7869 80.3256 65.7102 79.7461 65.7102C78.7631 65.7102 77.8768 65.9631 77.087 66.4688C76.2972 66.9744 75.6722 67.7159 75.212 68.6932C74.7575 69.6648 74.5302 70.8551 74.5302 72.2642C74.5302 73.679 74.7603 74.875 75.2205 75.8523C75.6808 76.8295 76.3114 77.571 77.1126 78.0767C77.9137 78.5824 78.8256 78.8352 79.8484 78.8352C80.7972 78.8352 81.6239 78.642 82.3285 78.2557C83.0387 77.8693 83.587 77.3239 83.9734 76.6193C84.3654 75.9091 84.5614 75.0739 84.5614 74.1136L85.2433 74.2415H80.2489V72.0682H87.1097V74.054C87.1097 75.5199 86.7972 76.7926 86.1722 77.8722C85.5529 78.946 84.695 79.7756 83.5984 80.3608C82.5075 80.946 81.2575 81.2386 79.8484 81.2386C78.2688 81.2386 76.8825 80.875 75.6893 80.1477C74.5018 79.4205 73.5756 78.3892 72.9109 77.054C72.2461 75.7131 71.9137 74.1222 71.9137 72.2812C71.9137 70.8892 72.1069 69.6392 72.4933 68.5312C72.8796 67.4233 73.4222 66.483 74.1211 65.7102C74.8256 64.9318 75.6523 64.3381 76.6012 63.929C77.5558 63.5142 78.5984 63.3068 79.729 63.3068C80.6722 63.3068 81.5501 63.446 82.3626 63.7244C83.1808 64.0028 83.908 64.3977 84.5444 64.9091C85.1864 65.4205 85.7177 66.0284 86.1381 66.733C86.5586 67.4318 86.8427 68.2074 86.9904 69.0597H84.2887ZM94.1431 73.1932V66.9034H97.288C97.5948 66.9034 97.9016 66.9801 98.2085 67.1335C98.521 67.2812 98.7795 67.5085 98.984 67.8153C99.1942 68.1165 99.2994 68.4915 99.2994 68.9403C99.2994 69.3949 99.1914 69.7812 98.9755 70.0994C98.7596 70.4176 98.4897 70.6591 98.1658 70.8239C97.842 70.9886 97.5181 71.071 97.1942 71.071H94.9613V69.9886H96.8022C97.0067 69.9886 97.2085 69.9006 97.4073 69.7244C97.6119 69.5483 97.7141 69.2869 97.7141 68.9403C97.7141 68.5767 97.6119 68.3267 97.4073 68.1903C97.2085 68.054 97.0153 67.9858 96.8278 67.9858H95.609V73.1932H94.1431ZM98.0124 70.2443L99.538 73.1932H97.9272L96.4613 70.2443H98.0124ZM96.555 76.9432C95.6119 76.9432 94.7283 76.767 93.9045 76.4148C93.0806 76.0625 92.3562 75.5739 91.7312 74.9489C91.1062 74.3239 90.6175 73.5994 90.2653 72.7756C89.913 71.9517 89.7369 71.0682 89.7369 70.125C89.7369 69.1818 89.913 68.2983 90.2653 67.4744C90.6175 66.6506 91.1062 65.9261 91.7312 65.3011C92.3562 64.6761 93.0806 64.1875 93.9045 63.8352C94.7283 63.483 95.6119 63.3068 96.555 63.3068C97.4982 63.3068 98.3817 63.483 99.2056 63.8352C100.029 64.1875 100.754 64.6761 101.379 65.3011C102.004 65.9261 102.493 66.6506 102.845 67.4744C103.197 68.2983 103.373 69.1818 103.373 70.125C103.373 71.0682 103.197 71.9517 102.845 72.7756C102.493 73.5994 102.004 74.3239 101.379 74.9489C100.754 75.5739 100.029 76.0625 99.2056 76.4148C98.3817 76.767 97.4982 76.9432 96.555 76.9432ZM96.555 75.2557C97.4982 75.2557 98.3562 75.0256 99.1289 74.5653C99.9073 74.0994 100.527 73.4801 100.987 72.7074C101.447 71.929 101.677 71.0682 101.677 70.125C101.677 69.1818 101.447 68.3239 100.987 67.5511C100.527 66.7727 99.9073 66.1534 99.1289 65.6932C98.3562 65.2273 97.4982 64.9943 96.555 64.9943C95.6119 64.9943 94.7511 65.2273 93.9727 65.6932C93.1942 66.1534 92.5749 66.7727 92.1147 67.5511C91.6545 68.3239 91.4244 69.1818 91.4244 70.125C91.4244 71.0682 91.6545 71.929 92.1147 72.7074C92.5749 73.4801 93.1942 74.0994 93.9727 74.5653C94.7511 75.0256 95.6119 75.2557 96.555 75.2557Z" fill="#080B36"/>
<defs>
<filter id="filter0_f_0_1" x="0" y="0" width="140" height="140" filterUnits="userSpaceOnUse" color-interpolation-filters="sRGB">
<feFlood flood-opacity="0" result="BackgroundImageFix"/>
<feBlend mode="normal" in="SourceGraphic" in2="BackgroundImageFix" result="shape"/>
<feGaussianBlur stdDeviation="2.5" result="effect1_foregroundBlur_0_1"/>
</filter>
<linearGradient id="paint0_linear_0_1" x1="70" y1="5" x2="70" y2="135" gradientUnits="userSpaceOnUse">
<stop stop-color="#E6E6E6"/>
<stop offset="0.25" stop-color="#6733EC"/>
<stop offset="0.5" stop-color="#AF56F4"/>
<stop offset="1" stop-color="#12F3DA"/>
</linearGradient>
<linearGradient id="paint1_linear_0_1" x1="70" y1="5" x2="70" y2="135" gradientUnits="userSpaceOnUse">
<stop stop-color="white"/>
<stop offset="0.25" stop-color="#6B34EC"/>
<stop offset="0.5" stop-color="#AF55F4"/>
<stop offset="1" stop-color="#17EEDB"/>
</linearGradient>
<linearGradient id="paint2_linear_0_1" x1="8.37012" y1="8.37012" x2="131.148" y2="131.148" gradientUnits="userSpaceOnUse">
<stop offset="0.372849" stop-color="#ECF8F7"/>
<stop offset="0.686425" stop-color="#B2B6CB"/>
<stop offset="1" stop-color="#7E86B0"/>
</linearGradient>
</defs>
</svg>
