<svg width="55" height="55" viewBox="0 0 55 55" fill="none" xmlns="http://www.w3.org/2000/svg">
<rect width="55" height="55" rx="8" fill="#393C5E"/>
<path d="M31.75 23.625H30.5V29.875H31.75V23.625Z" fill="url(#paint0_linear_101_88)"/>
<path d="M28 27.375H29.25V29.875H28V27.375Z" fill="url(#paint1_linear_101_88)"/>
<path d="M26.75 26.125H25.5V29.875H26.75C26.75 28.4711 26.75 27.4851 26.75 26.125Z" fill="url(#paint2_linear_101_88)"/>
<path d="M20.4999 33H36.7499V16.5938C36.7499 14.609 35.1409 13 33.1561 13H20.1636C20.377 13.368 20.4999 13.7948 20.4999 14.25V33ZM24.2499 15.5H28.6249C28.9701 15.5 29.2499 15.7798 29.2499 16.125C29.2499 16.4702 28.9701 16.75 28.6249 16.75H24.2499C23.9047 16.75 23.6249 16.4702 23.6249 16.125C23.6249 15.7798 23.9047 15.5 24.2499 15.5ZM24.2499 18H28.6249C28.9701 18 29.2499 18.2798 29.2499 18.625C29.2499 18.9702 28.9701 19.25 28.6249 19.25H24.2499C23.9047 19.25 23.6249 18.9702 23.6249 18.625C23.6249 18.2798 23.9047 18 24.2499 18ZM23.6249 29.875H24.2499V25.5C24.2499 25.1548 24.5297 24.875 24.8749 24.875H27.3749C27.7201 24.875 27.9999 25.1548 27.9999 25.5V26.125H29.2499V23C29.2499 22.6548 29.5298 22.375 29.8749 22.375H32.3749C32.72 22.375 32.9999 22.6548 32.9999 23V29.875H33.6249C33.97 29.875 34.2499 30.1549 34.2499 30.5C34.2499 30.8451 33.97 31.125 33.6249 31.125C33.6479 31.125 32.2528 31.125 23.6249 31.125C23.2797 31.125 22.9999 30.8451 22.9999 30.5C22.9999 30.1549 23.2797 29.875 23.6249 29.875Z" fill="url(#paint3_linear_101_88)"/>
<path d="M19.25 19.2501H17.375C16.3411 19.2501 15.5 18.4089 15.5 17.3751V16.8384C14.0685 17.178 13 18.4662 13 20.0001V33.0001H19.25V19.2501Z" fill="url(#paint4_linear_101_88)"/>
<path d="M39.75 16.75H38V33H43V20C43 18.2079 41.5421 16.75 39.75 16.75Z" fill="url(#paint5_linear_101_88)"/>
<path d="M13 34.25V36C13 37.7921 14.4579 39.25 16.25 39.25H24.25V41.75H23.625C23.2798 41.75 23 42.0299 23 42.375C23 42.7201 23.2798 43 23.625 43H32.375C32.7201 43 33 42.7201 33 42.375C33 42.0299 32.7201 41.75 32.375 41.75H31.75V39.25H39.75C41.5421 39.25 43 37.7921 43 36V34.25C40.8724 34.25 14.4195 34.25 13 34.25ZM27.6875 35.5H28.3125C28.6577 35.5 28.9375 35.7799 28.9375 36.125C28.9375 36.4701 28.6577 36.75 28.3125 36.75H27.6875C27.3423 36.75 27.0625 36.4701 27.0625 36.125C27.0625 35.7799 27.3423 35.5 27.6875 35.5Z" fill="url(#paint6_linear_101_88)"/>
<path d="M17.375 18H19.25V14.25C19.25 13.5596 18.6904 13 18 13C17.3096 13 16.75 13.5596 16.75 14.25V17.375C16.75 17.7202 17.0298 18 17.375 18Z" fill="url(#paint7_linear_101_88)"/>
<defs>
<linearGradient id="paint0_linear_101_88" x1="30.5" y1="23.625" x2="32.9038" y2="24.1058" gradientUnits="userSpaceOnUse">
<stop offset="0.372849" stop-color="#ECF8F7"/>
<stop offset="0.686425" stop-color="#B2B6CB"/>
<stop offset="1" stop-color="#7E86B0"/>
</linearGradient>
<linearGradient id="paint1_linear_101_88" x1="28" y1="27.375" x2="30" y2="28.375" gradientUnits="userSpaceOnUse">
<stop offset="0.372849" stop-color="#ECF8F7"/>
<stop offset="0.686425" stop-color="#B2B6CB"/>
<stop offset="1" stop-color="#7E86B0"/>
</linearGradient>
<linearGradient id="paint2_linear_101_88" x1="25.5" y1="26.125" x2="27.75" y2="26.875" gradientUnits="userSpaceOnUse">
<stop offset="0.372849" stop-color="#ECF8F7"/>
<stop offset="0.686425" stop-color="#B2B6CB"/>
<stop offset="1" stop-color="#7E86B0"/>
</linearGradient>
<linearGradient id="paint3_linear_101_88" x1="20.1636" y1="13" x2="39.8183" y2="29.3" gradientUnits="userSpaceOnUse">
<stop offset="0.372849" stop-color="#ECF8F7"/>
<stop offset="0.686425" stop-color="#B2B6CB"/>
<stop offset="1" stop-color="#7E86B0"/>
</linearGradient>
<linearGradient id="paint4_linear_101_88" x1="13" y1="16.8384" x2="23.8738" y2="21.0435" gradientUnits="userSpaceOnUse">
<stop offset="0.372849" stop-color="#ECF8F7"/>
<stop offset="0.686425" stop-color="#B2B6CB"/>
<stop offset="1" stop-color="#7E86B0"/>
</linearGradient>
<linearGradient id="paint5_linear_101_88" x1="38" y1="16.75" x2="47.1351" y2="19.5608" gradientUnits="userSpaceOnUse">
<stop offset="0.372849" stop-color="#ECF8F7"/>
<stop offset="0.686425" stop-color="#B2B6CB"/>
<stop offset="1" stop-color="#7E86B0"/>
</linearGradient>
<linearGradient id="paint6_linear_101_88" x1="13" y1="34.25" x2="17.704" y2="50.378" gradientUnits="userSpaceOnUse">
<stop offset="0.372849" stop-color="#ECF8F7"/>
<stop offset="0.686425" stop-color="#B2B6CB"/>
<stop offset="1" stop-color="#7E86B0"/>
</linearGradient>
<linearGradient id="paint7_linear_101_88" x1="16.75" y1="13" x2="20.75" y2="15" gradientUnits="userSpaceOnUse">
<stop offset="0.372849" stop-color="#ECF8F7"/>
<stop offset="0.686425" stop-color="#B2B6CB"/>
<stop offset="1" stop-color="#7E86B0"/>
</linearGradient>
</defs>
</svg>
