<svg width="55" height="55" viewBox="0 0 55 55" fill="none" xmlns="http://www.w3.org/2000/svg">
<rect width="55" height="55" rx="8" fill="#393C5E"/>
<path fill-rule="evenodd" clip-rule="evenodd" d="M43.8999 25.1434L42.7502 25.4346L41.8072 25.6715C41.5927 26.5935 41.2284 27.474 40.7289 28.2779L41.2267 29.1123L41.8354 30.1311C41.5395 30.5207 41.2175 30.8899 40.8717 31.236C40.7234 31.3843 40.5729 31.5272 40.417 31.6645C40.2106 30.1748 39.5568 28.7829 38.5422 27.6731C39.2866 26.6996 39.7439 25.5371 39.8624 24.3171C39.981 23.0972 39.7559 21.8684 39.2128 20.7697C38.6697 19.671 37.8302 18.7461 36.7891 18.0997C35.748 17.4533 34.5469 17.1111 33.3216 17.1118V17.11C31.5925 17.1072 29.9325 17.7888 28.704 19.006L26.6075 15.3736C26.6958 15.3022 26.784 15.2327 26.8743 15.165L27.8928 15.7739L28.7269 16.2719C29.5305 15.7723 30.4106 15.408 31.3321 15.1934L31.5688 14.2501L31.8581 13.1001C32.8286 12.9666 33.8127 12.9666 34.7831 13.1001L35.0724 14.2501L35.3109 15.1934C36.2319 15.4083 37.1115 15.7726 37.9148 16.2719L38.7488 15.7737L39.7673 15.1649C40.547 15.7573 41.2427 16.4527 41.8354 17.2321L41.2267 18.2525L40.7289 19.085C41.2284 19.8889 41.5926 20.7694 41.8072 21.6913L42.7502 21.9281L43.8999 22.2194C44.0334 23.1895 44.0334 24.1733 43.8999 25.1434ZM37.8678 27.0244C38.4857 26.1835 38.8585 25.1877 38.9448 24.1476C39.031 23.1076 38.8273 22.0639 38.3563 21.1327C37.8853 20.2015 37.1654 19.4191 36.2766 18.8725C35.3878 18.3259 34.3649 18.0365 33.3216 18.0364V18.0382C32.5805 18.0371 31.8465 18.1824 31.1618 18.4659C30.477 18.7493 29.855 19.1654 29.3315 19.69C29.2807 19.7408 29.2337 19.7897 29.1868 19.8403L32.3278 25.2825C33.3209 25.1857 34.3232 25.2901 35.275 25.5894C36.2269 25.8887 37.1087 26.3767 37.8678 27.0244ZM26.4969 36.268H13.6921C13.2196 36.2682 12.7554 36.1439 12.3461 35.9077C11.9368 35.6714 11.597 35.3316 11.3607 34.9223C11.1244 34.513 11 34.0486 11 33.576C11 33.1033 11.1245 32.639 11.3608 32.2297L20.9809 15.5596C21.2174 15.1505 21.5573 14.8108 21.9665 14.5746C22.3757 14.3385 22.8398 14.2141 23.3123 14.2141C23.7847 14.2141 24.2488 14.3385 24.658 14.5746C25.0672 14.8108 25.4071 15.1505 25.6436 15.5596L31.3488 25.4422C30.2306 25.7027 29.1877 26.2183 28.3016 26.9485C27.4154 27.6788 26.7099 28.604 26.2402 29.652C25.7704 30.7 25.5492 31.8424 25.5936 32.99C25.6381 34.1377 25.9471 35.2595 26.4965 36.268H26.4969ZM24.6502 32.4796C24.6504 32.2152 24.5722 31.9566 24.4255 31.7366C24.2788 31.5166 24.0701 31.3451 23.8259 31.2437C23.5818 31.1423 23.313 31.1156 23.0537 31.167C22.7944 31.2184 22.5561 31.3456 22.369 31.5325C22.182 31.7193 22.0545 31.9575 22.0027 32.2168C21.951 32.4761 21.9772 32.745 22.0782 32.9894C22.1792 33.2338 22.3504 33.4427 22.5701 33.5898C22.7898 33.7369 23.0482 33.8155 23.3126 33.8157C23.667 33.8158 24.007 33.6751 24.2578 33.4246C24.5086 33.1741 24.6496 32.8342 24.65 32.4796H24.6502ZM24.9508 20.267C24.9658 19.9551 24.6839 19.7014 24.3609 19.7014H22.2661C21.941 19.7014 21.6611 19.9551 21.6762 20.267L22.1139 28.9919C22.1198 29.1444 22.1846 29.2887 22.2946 29.3945C22.4045 29.5003 22.5512 29.5594 22.7038 29.5594H23.923C24.0754 29.5587 24.2216 29.4994 24.3315 29.3937C24.4413 29.2881 24.5062 29.1442 24.5129 28.9919L24.9508 20.267ZM37.7891 37.1738C36.6928 38.3374 35.2077 39.058 33.6156 39.199C32.0234 39.34 30.4348 38.8915 29.1513 37.9386L27.763 39.4137L28.1932 39.82L25.6083 42.5635C25.4875 42.695 25.3418 42.8013 25.1796 42.8761C25.0174 42.9509 24.842 42.9927 24.6635 42.9991C24.4851 43.0056 24.3071 42.9765 24.14 42.9136C23.9728 42.8507 23.8198 42.7552 23.6899 42.6327C23.5599 42.5102 23.4555 42.363 23.3829 42.1999C23.3102 42.0367 23.2706 41.8607 23.2665 41.6821C23.2623 41.5035 23.2937 41.3259 23.3587 41.1595C23.4237 40.9931 23.5211 40.8413 23.6452 40.7129L26.2281 37.9687L26.6564 38.3726L28.0465 36.8976C27.2375 35.9343 26.7241 34.7577 26.5682 33.5093C26.4123 32.2609 26.6205 30.9941 27.1677 29.8614C27.715 28.7286 28.578 27.7783 29.6527 27.1249C30.7275 26.4715 31.9682 26.1428 33.2254 26.1784C34.4825 26.2141 35.7026 26.6125 36.7386 27.3258C37.7747 28.0391 38.5824 29.0368 39.0647 30.1987C39.5469 31.3606 39.6831 32.6372 39.4567 33.8748C39.2304 35.1123 38.6512 36.258 37.7889 37.1738H37.7891ZM36.3724 29.161C35.6726 28.5019 34.7931 28.0651 33.8451 27.906C32.8972 27.7468 31.9233 27.8724 31.0467 28.2669C30.1701 28.6614 29.4301 29.3071 28.9204 30.1223C28.4106 30.9374 28.154 31.8855 28.1829 32.8466C28.2118 33.8077 28.5249 34.7386 29.0828 35.5216C29.6406 36.3047 30.418 36.9047 31.3167 37.2458C32.2154 37.5869 33.1951 37.6537 34.1318 37.4378C35.0685 37.222 35.9201 36.7331 36.5791 36.0331C37.0169 35.5684 37.3588 35.022 37.5854 34.4251C37.812 33.8282 37.9187 33.1924 37.8995 32.5542C37.8803 31.916 37.7356 31.2878 37.4735 30.7056C37.2115 30.1234 36.8373 29.5985 36.3724 29.161Z" fill="url(#paint0_linear_101_87)"/>
<defs>
<linearGradient id="paint0_linear_101_87" x1="11" y1="13" x2="40.8643" y2="45.8507" gradientUnits="userSpaceOnUse">
<stop offset="0.372849" stop-color="#ECF8F7"/>
<stop offset="0.686425" stop-color="#B2B6CB"/>
<stop offset="1" stop-color="#7E86B0"/>
</linearGradient>
</defs>
</svg>
