<svg width="140" height="140" viewBox="0 0 140 140" fill="none" xmlns="http://www.w3.org/2000/svg">
<g filter="url(#filter0_f_0_1)">
<rect x="5" y="5" width="130" height="130" rx="18" fill="url(#paint0_linear_0_1)"/>
<rect x="5.5" y="5.5" width="129" height="129" rx="17.5" stroke="url(#paint1_linear_0_1)"/>
</g>
<rect x="8.37012" y="8.37012" width="122.778" height="122.778" rx="16" fill="url(#paint2_linear_0_1)"/>
<path d="M37.4148 69.2216H34.7557C34.6534 68.6534 34.4631 68.1534 34.1847 67.7216C33.9063 67.2898 33.5653 66.9233 33.1619 66.6222C32.7585 66.321 32.3068 66.0937 31.8068 65.9403C31.3125 65.7869 30.7869 65.7102 30.2301 65.7102C29.2244 65.7102 28.3239 65.9631 27.5284 66.4688C26.7386 66.9744 26.1136 67.7159 25.6534 68.6932C25.1989 69.6705 24.9716 70.8636 24.9716 72.2727C24.9716 73.6932 25.1989 74.892 25.6534 75.8693C26.1136 76.8466 26.7415 77.5852 27.5369 78.0852C28.3324 78.5852 29.2273 78.8352 30.2216 78.8352C30.7727 78.8352 31.2955 78.7614 31.7898 78.6136C32.2898 78.4602 32.7415 78.2358 33.1449 77.9403C33.5483 77.6449 33.8892 77.2841 34.1676 76.858C34.4517 76.4261 34.6477 75.9318 34.7557 75.375L37.4148 75.3835C37.2727 76.2415 36.9972 77.0312 36.5881 77.7528C36.1847 78.4688 35.6648 79.0881 35.0284 79.6108C34.3977 80.1278 33.6761 80.5284 32.8636 80.8125C32.0511 81.0966 31.1648 81.2386 30.2045 81.2386C28.6932 81.2386 27.3466 80.8807 26.1648 80.1648C24.983 79.4432 24.0511 78.4119 23.3693 77.071C22.6932 75.7301 22.3551 74.1307 22.3551 72.2727C22.3551 70.4091 22.696 68.8097 23.3778 67.4744C24.0597 66.1335 24.9915 65.1051 26.1733 64.3892C27.3551 63.6676 28.6989 63.3068 30.2045 63.3068C31.1307 63.3068 31.9943 63.4403 32.7955 63.7074C33.6023 63.9687 34.3267 64.3551 34.9688 64.8665C35.6108 65.3722 36.142 65.9915 36.5625 66.7244C36.983 67.4517 37.267 68.2841 37.4148 69.2216ZM40.5661 81V63.5455H46.7876C48.1399 63.5455 49.2621 63.7784 50.1541 64.2443C51.0518 64.7102 51.7223 65.3551 52.1655 66.179C52.6087 66.9972 52.8303 67.9432 52.8303 69.017C52.8303 70.0852 52.6058 71.0256 52.157 71.8381C51.7138 72.6449 51.0433 73.2727 50.1456 73.7216C49.2536 74.1705 48.1314 74.3949 46.7791 74.3949H42.0661V72.1278H46.5405C47.3928 72.1278 48.0859 72.0057 48.62 71.7614C49.1598 71.517 49.5547 71.1619 49.8047 70.696C50.0547 70.2301 50.1797 69.6705 50.1797 69.017C50.1797 68.358 50.0518 67.7869 49.7962 67.304C49.5462 66.821 49.1513 66.4517 48.6115 66.196C48.0774 65.9347 47.3757 65.804 46.5064 65.804H43.1996V81H40.5661ZM49.1825 73.125L53.495 81H50.495L46.2678 73.125H49.1825ZM58.6683 63.5455V81H56.0348V63.5455H58.6683ZM62.5036 81V63.5455H68.7251C70.0831 63.5455 71.2081 63.7926 72.1001 64.2869C72.9922 64.7812 73.6598 65.4574 74.103 66.3153C74.5462 67.1676 74.7678 68.1278 74.7678 69.196C74.7678 70.2699 74.5433 71.2358 74.0945 72.0938C73.6513 72.946 72.9808 73.6222 72.0831 74.1222C71.1911 74.6165 70.0689 74.8636 68.7166 74.8636H64.4382V72.6307H68.478C69.3359 72.6307 70.032 72.483 70.5661 72.1875C71.1001 71.8864 71.4922 71.4773 71.7422 70.9602C71.9922 70.4432 72.1172 69.8551 72.1172 69.196C72.1172 68.5369 71.9922 67.9517 71.7422 67.4403C71.4922 66.929 71.0973 66.5284 70.5575 66.2386C70.0234 65.9489 69.3189 65.804 68.4439 65.804H65.1371V81H62.5036ZM84.473 71.1648V73.3807H76.7344V71.1648H84.473ZM93.7244 81H88.0739V63.5455H93.9034C95.6136 63.5455 97.0824 63.8949 98.3097 64.5938C99.5369 65.2869 100.477 66.2841 101.131 67.5852C101.79 68.8807 102.119 70.4347 102.119 72.2472C102.119 74.0653 101.787 75.6278 101.122 76.9347C100.463 78.2415 99.5085 79.2472 98.2585 79.9517C97.0085 80.6506 95.4972 81 93.7244 81ZM90.7074 78.6989H93.5795C94.9091 78.6989 96.0142 78.4489 96.8949 77.9489C97.7756 77.4432 98.4347 76.7131 98.8722 75.7585C99.3097 74.7983 99.5284 73.6278 99.5284 72.2472C99.5284 70.8778 99.3097 69.7159 98.8722 68.7614C98.4403 67.8068 97.7955 67.0824 96.9375 66.5881C96.0795 66.0937 95.0142 65.8466 93.7415 65.8466H90.7074V78.6989ZM108.944 73.1932V66.9034H112.089C112.396 66.9034 112.702 66.9801 113.009 67.1335C113.322 67.2812 113.58 67.5085 113.785 67.8153C113.995 68.1165 114.1 68.4915 114.1 68.9403C114.1 69.3949 113.992 69.7812 113.776 70.0994C113.56 70.4176 113.29 70.6591 112.967 70.8239C112.643 70.9886 112.319 71.071 111.995 71.071H109.762V69.9886H111.603C111.808 69.9886 112.009 69.9006 112.208 69.7244C112.413 69.5483 112.515 69.2869 112.515 68.9403C112.515 68.5767 112.413 68.3267 112.208 68.1903C112.009 68.054 111.816 67.9858 111.629 67.9858H110.41V73.1932H108.944ZM112.813 70.2443L114.339 73.1932H112.728L111.262 70.2443H112.813ZM111.356 76.9432C110.413 76.9432 109.529 76.767 108.705 76.4148C107.881 76.0625 107.157 75.5739 106.532 74.9489C105.907 74.3239 105.418 73.5994 105.066 72.7756C104.714 71.9517 104.538 71.0682 104.538 70.125C104.538 69.1818 104.714 68.2983 105.066 67.4744C105.418 66.6506 105.907 65.9261 106.532 65.3011C107.157 64.6761 107.881 64.1875 108.705 63.8352C109.529 63.483 110.413 63.3068 111.356 63.3068C112.299 63.3068 113.183 63.483 114.006 63.8352C114.83 64.1875 115.555 64.6761 116.18 65.3011C116.805 65.9261 117.293 66.6506 117.646 67.4744C117.998 68.2983 118.174 69.1818 118.174 70.125C118.174 71.0682 117.998 71.9517 117.646 72.7756C117.293 73.5994 116.805 74.3239 116.18 74.9489C115.555 75.5739 114.83 76.0625 114.006 76.4148C113.183 76.767 112.299 76.9432 111.356 76.9432ZM111.356 75.2557C112.299 75.2557 113.157 75.0256 113.93 74.5653C114.708 74.0994 115.327 73.4801 115.788 72.7074C116.248 71.929 116.478 71.0682 116.478 70.125C116.478 69.1818 116.248 68.3239 115.788 67.5511C115.327 66.7727 114.708 66.1534 113.93 65.6932C113.157 65.2273 112.299 64.9943 111.356 64.9943C110.413 64.9943 109.552 65.2273 108.773 65.6932C107.995 66.1534 107.376 66.7727 106.915 67.5511C106.455 68.3239 106.225 69.1818 106.225 70.125C106.225 71.0682 106.455 71.929 106.915 72.7074C107.376 73.4801 107.995 74.0994 108.773 74.5653C109.552 75.0256 110.413 75.2557 111.356 75.2557Z" fill="#080B36"/>
<defs>
<filter id="filter0_f_0_1" x="0" y="0" width="140" height="140" filterUnits="userSpaceOnUse" color-interpolation-filters="sRGB">
<feFlood flood-opacity="0" result="BackgroundImageFix"/>
<feBlend mode="normal" in="SourceGraphic" in2="BackgroundImageFix" result="shape"/>
<feGaussianBlur stdDeviation="2.5" result="effect1_foregroundBlur_0_1"/>
</filter>
<linearGradient id="paint0_linear_0_1" x1="70" y1="5" x2="70" y2="135" gradientUnits="userSpaceOnUse">
<stop stop-color="#E6E6E6"/>
<stop offset="0.25" stop-color="#6733EC"/>
<stop offset="0.5" stop-color="#AF56F4"/>
<stop offset="1" stop-color="#12F3DA"/>
</linearGradient>
<linearGradient id="paint1_linear_0_1" x1="70" y1="5" x2="70" y2="135" gradientUnits="userSpaceOnUse">
<stop stop-color="white"/>
<stop offset="0.25" stop-color="#6B34EC"/>
<stop offset="0.5" stop-color="#AF55F4"/>
<stop offset="1" stop-color="#17EEDB"/>
</linearGradient>
<linearGradient id="paint2_linear_0_1" x1="8.37012" y1="8.37012" x2="131.148" y2="131.148" gradientUnits="userSpaceOnUse">
<stop offset="0.372849" stop-color="#ECF8F7"/>
<stop offset="0.686425" stop-color="#B2B6CB"/>
<stop offset="1" stop-color="#7E86B0"/>
</linearGradient>
</defs>
</svg>
