<svg width="140" height="140" viewBox="0 0 140 140" fill="none" xmlns="http://www.w3.org/2000/svg">
<g filter="url(#filter0_f_0_1)">
<rect x="5" y="5" width="130" height="130" rx="18" fill="url(#paint0_linear_0_1)"/>
<rect x="5.5" y="5.5" width="129" height="129" rx="17.5" stroke="url(#paint1_linear_0_1)"/>
</g>
<rect x="8.37012" y="8.37012" width="122.778" height="122.778" rx="16" fill="url(#paint2_linear_0_1)"/>
<path d="M43.7074 63.5455V81H41.0739V63.5455H43.7074ZM62.0398 69.2216H59.3807C59.2784 68.6534 59.0881 68.1534 58.8097 67.7216C58.5313 67.2898 58.1903 66.9233 57.7869 66.6222C57.3835 66.321 56.9318 66.0937 56.4318 65.9403C55.9375 65.7869 55.4119 65.7102 54.8551 65.7102C53.8494 65.7102 52.9489 65.9631 52.1534 66.4688C51.3636 66.9744 50.7386 67.7159 50.2784 68.6932C49.8239 69.6705 49.5966 70.8636 49.5966 72.2727C49.5966 73.6932 49.8239 74.892 50.2784 75.8693C50.7386 76.8466 51.3665 77.5852 52.1619 78.0852C52.9574 78.5852 53.8523 78.8352 54.8466 78.8352C55.3977 78.8352 55.9205 78.7614 56.4148 78.6136C56.9148 78.4602 57.3665 78.2358 57.7699 77.9403C58.1733 77.6449 58.5142 77.2841 58.7926 76.858C59.0767 76.4261 59.2727 75.9318 59.3807 75.375L62.0398 75.3835C61.8977 76.2415 61.6222 77.0312 61.2131 77.7528C60.8097 78.4688 60.2898 79.0881 59.6534 79.6108C59.0227 80.1278 58.3011 80.5284 57.4886 80.8125C56.6761 81.0966 55.7898 81.2386 54.8295 81.2386C53.3182 81.2386 51.9716 80.8807 50.7898 80.1648C49.608 79.4432 48.6761 78.4119 47.9943 77.071C47.3182 75.7301 46.9801 74.1307 46.9801 72.2727C46.9801 70.4091 47.321 68.8097 48.0028 67.4744C48.6847 66.1335 49.6165 65.1051 50.7983 64.3892C51.9801 63.6676 53.3239 63.3068 54.8295 63.3068C55.7557 63.3068 56.6193 63.4403 57.4205 63.7074C58.2273 63.9687 58.9517 64.3551 59.5938 64.8665C60.2358 65.3722 60.767 65.9915 61.1875 66.7244C61.608 67.4517 61.892 68.2841 62.0398 69.2216ZM65.1911 63.5455H68.3871L73.9439 77.1136H74.1484L79.7053 63.5455H82.9013V81H80.3956V68.3693H80.2337L75.0859 80.9744H73.0064L67.8587 68.3608H67.6967V81H65.1911V63.5455ZM90.4205 73.1932V66.9034H93.5653C93.8722 66.9034 94.179 66.9801 94.4858 67.1335C94.7983 67.2812 95.0568 67.5085 95.2614 67.8153C95.4716 68.1165 95.5767 68.4915 95.5767 68.9403C95.5767 69.3949 95.4688 69.7812 95.2528 70.0994C95.0369 70.4176 94.767 70.6591 94.4432 70.8239C94.1193 70.9886 93.7955 71.071 93.4716 71.071H91.2386V69.9886H93.0795C93.2841 69.9886 93.4858 69.9006 93.6847 69.7244C93.8892 69.5483 93.9915 69.2869 93.9915 68.9403C93.9915 68.5767 93.8892 68.3267 93.6847 68.1903C93.4858 68.054 93.2926 67.9858 93.1051 67.9858H91.8864V73.1932H90.4205ZM94.2898 70.2443L95.8153 73.1932H94.2045L92.7386 70.2443H94.2898ZM92.8324 76.9432C91.8892 76.9432 91.0057 76.767 90.1818 76.4148C89.358 76.0625 88.6335 75.5739 88.0085 74.9489C87.3835 74.3239 86.8949 73.5994 86.5426 72.7756C86.1903 71.9517 86.0142 71.0682 86.0142 70.125C86.0142 69.1818 86.1903 68.2983 86.5426 67.4744C86.8949 66.6506 87.3835 65.9261 88.0085 65.3011C88.6335 64.6761 89.358 64.1875 90.1818 63.8352C91.0057 63.483 91.8892 63.3068 92.8324 63.3068C93.7756 63.3068 94.6591 63.483 95.483 63.8352C96.3068 64.1875 97.0312 64.6761 97.6562 65.3011C98.2812 65.9261 98.7699 66.6506 99.1222 67.4744C99.4744 68.2983 99.6506 69.1818 99.6506 70.125C99.6506 71.0682 99.4744 71.9517 99.1222 72.7756C98.7699 73.5994 98.2812 74.3239 97.6562 74.9489C97.0312 75.5739 96.3068 76.0625 95.483 76.4148C94.6591 76.767 93.7756 76.9432 92.8324 76.9432ZM92.8324 75.2557C93.7756 75.2557 94.6335 75.0256 95.4062 74.5653C96.1847 74.0994 96.804 73.4801 97.2642 72.7074C97.7244 71.929 97.9545 71.0682 97.9545 70.125C97.9545 69.1818 97.7244 68.3239 97.2642 67.5511C96.804 66.7727 96.1847 66.1534 95.4062 65.6932C94.6335 65.2273 93.7756 64.9943 92.8324 64.9943C91.8892 64.9943 91.0284 65.2273 90.25 65.6932C89.4716 66.1534 88.8523 66.7727 88.392 67.5511C87.9318 68.3239 87.7017 69.1818 87.7017 70.125C87.7017 71.0682 87.9318 71.929 88.392 72.7074C88.8523 73.4801 89.4716 74.0994 90.25 74.5653C91.0284 75.0256 91.8892 75.2557 92.8324 75.2557Z" fill="#080B36"/>
<defs>
<filter id="filter0_f_0_1" x="0" y="0" width="140" height="140" filterUnits="userSpaceOnUse" color-interpolation-filters="sRGB">
<feFlood flood-opacity="0" result="BackgroundImageFix"/>
<feBlend mode="normal" in="SourceGraphic" in2="BackgroundImageFix" result="shape"/>
<feGaussianBlur stdDeviation="2.5" result="effect1_foregroundBlur_0_1"/>
</filter>
<linearGradient id="paint0_linear_0_1" x1="70" y1="5" x2="70" y2="135" gradientUnits="userSpaceOnUse">
<stop stop-color="#E6E6E6"/>
<stop offset="0.25" stop-color="#6733EC"/>
<stop offset="0.5" stop-color="#AF56F4"/>
<stop offset="1" stop-color="#12F3DA"/>
</linearGradient>
<linearGradient id="paint1_linear_0_1" x1="70" y1="5" x2="70" y2="135" gradientUnits="userSpaceOnUse">
<stop stop-color="white"/>
<stop offset="0.25" stop-color="#6B34EC"/>
<stop offset="0.5" stop-color="#AF55F4"/>
<stop offset="1" stop-color="#17EEDB"/>
</linearGradient>
<linearGradient id="paint2_linear_0_1" x1="8.37012" y1="8.37012" x2="131.148" y2="131.148" gradientUnits="userSpaceOnUse">
<stop offset="0.372849" stop-color="#ECF8F7"/>
<stop offset="0.686425" stop-color="#B2B6CB"/>
<stop offset="1" stop-color="#7E86B0"/>
</linearGradient>
</defs>
</svg>
