<svg width="45" height="45" viewBox="0 0 45 45" fill="none" xmlns="http://www.w3.org/2000/svg">
<path d="M26.4551 22.5C26.4551 24.6842 24.6842 26.4551 22.5 26.4551C20.3158 26.4551 18.5449 24.6842 18.5449 22.5C18.5449 20.3158 20.3158 18.5449 22.5 18.5449C24.6842 18.5449 26.4551 20.3158 26.4551 22.5Z" fill="white"/>
<path d="M29.1797 10.5469H15.8203C12.9124 10.5469 10.5469 12.9124 10.5469 15.8203V29.1797C10.5469 32.0876 12.9124 34.4531 15.8203 34.4531H29.1797C32.0876 34.4531 34.4531 32.0876 34.4531 29.1797V15.8203C34.4531 12.9124 32.0876 10.5469 29.1797 10.5469ZM22.5 29.0918C18.8652 29.0918 15.9082 26.1348 15.9082 22.5C15.9082 18.8652 18.8652 15.9082 22.5 15.9082C26.1348 15.9082 29.0918 18.8652 29.0918 22.5C29.0918 26.1348 26.1348 29.0918 22.5 29.0918ZM30.0586 16.2598C29.3304 16.2598 28.7402 15.6696 28.7402 14.9414C28.7402 14.2132 29.3304 13.623 30.0586 13.623C30.7868 13.623 31.377 14.2132 31.377 14.9414C31.377 15.6696 30.7868 16.2598 30.0586 16.2598Z" fill="white"/>
<path d="M33.1348 0H11.8652C5.32288 0 0 5.32288 0 11.8652V33.1348C0 39.6771 5.32288 45 11.8652 45H33.1348C39.6771 45 45 39.6771 45 33.1348V11.8652C45 5.32288 39.6771 0 33.1348 0ZM37.0898 29.1797C37.0898 33.5413 33.5413 37.0898 29.1797 37.0898H15.8203C11.4587 37.0898 7.91016 33.5413 7.91016 29.1797V15.8203C7.91016 11.4587 11.4587 7.91016 15.8203 7.91016H29.1797C33.5413 7.91016 37.0898 11.4587 37.0898 15.8203V29.1797Z" fill="white"/>
</svg>
