<svg width="46" height="45" viewBox="0 0 46 45" fill="none" xmlns="http://www.w3.org/2000/svg">
<path d="M33.7143 0H11.2857C5.07143 0 0 5.07143 0 11.2857V33.75C0 39.9286 5.07143 45 11.2857 45H33.75C39.9643 45 45.0357 39.9286 45.0357 33.7143V11.2857C45 5.07143 39.9286 0 33.7143 0ZM15 36.4286H8.57143V17.8571H15V36.4286ZM11.75 15C9.92857 15 8.46429 13.5357 8.46429 11.7143C8.46429 9.89286 9.92857 8.42857 11.75 8.42857C13.5714 8.42857 15.0357 9.89286 15.0357 11.7143C15 13.5357 13.5357 15 11.75 15ZM36.4643 36.4286H36.4286H31.0714V27.4286C31.0714 25.25 30.7857 22.4643 27.8214 22.4643C24.7857 22.4643 24.2857 24.8214 24.2857 27.2857V36.4286H18.9286V17.8571H23.9286V20.3571H24.0714C24.8571 18.9286 26.6786 17.8214 29.5357 17.8214C35.4286 17.8214 36.4643 21.2143 36.4643 26.25V36.4286Z" fill="white"/>
</svg>
