<svg width="170" height="20" viewBox="0 0 170 20" fill="none" xmlns="http://www.w3.org/2000/svg">
<path d="M24.48 13.7086V5.3082C24.48 2.54457 22.2275 0.311752 19.4395 0.311752H5.0405C2.2525 0.311752 0 2.54457 0 5.3082V13.7086C0 16.4723 2.2525 18.7051 5.0405 18.7051H19.431C22.219 18.7051 24.4715 16.4723 24.4715 13.7086H24.48ZM21.25 15.5118H3.23V3.5051H21.2585V15.5033L21.25 15.5118Z" fill="#F8F8F8"/>
<path d="M37.2805 7.91176H30.54V11.1135H37.2805V7.91176Z" fill="#F8F8F8"/>
<path d="M101.388 18.7051L89.216 1.87051C88.4425 0.800444 87.2355 0 85.782 0C84.3285 0 83.1215 0.800444 82.348 1.87051L70.21 18.7051H74.3155L85.663 3.79157L97.308 18.7051H101.379H101.388Z" fill="#F8F8F8"/>
<path d="M106.505 0.311752H103.275V18.7135H106.505V0.311752Z" fill="#F8F8F8"/>
<path d="M134.946 15.4106V0.311749H131.716V16.4133L116.484 1.07849C115.812 0.412857 114.903 0.00842285 113.891 0.00842285C111.877 0.00842285 110.262 1.60931 110.262 3.60621V18.7051H113.492V2.61197L128.724 17.9468C129.395 18.6124 130.305 19.0168 131.316 19.0168C133.331 19.0168 134.946 17.416 134.946 15.4191V15.4106Z" fill="#F8F8F8"/>
<path d="M138.72 5.3082V13.7086C138.72 16.4723 140.972 18.7051 143.76 18.7051H163.2V15.5033H141.95V3.5051H163.2V0.311752H143.76C140.972 0.311752 138.72 2.54457 138.72 5.3082Z" fill="#F8F8F8"/>
<path d="M168.666 2.08958C168.666 2.08958 168.581 2.02217 168.521 1.99689C168.674 1.98847 168.793 1.92949 168.887 1.83681C168.98 1.74412 169.023 1.63459 169.023 1.5082C169.023 1.41552 168.997 1.33126 168.938 1.25543C168.878 1.1796 168.81 1.12062 168.717 1.08692C168.623 1.05321 168.479 1.03636 168.275 1.03636H167.68V2.76363H167.96V2.0306H168.122C168.224 2.0306 168.292 2.04745 168.351 2.08958C168.428 2.14013 168.521 2.27494 168.649 2.49401L168.802 2.76363H169.142L168.929 2.42661C168.827 2.26652 168.742 2.14856 168.674 2.08115L168.666 2.08958ZM168.292 1.79468H167.952V1.27228H168.275C168.411 1.27228 168.504 1.28071 168.555 1.30598C168.606 1.32284 168.649 1.35654 168.674 1.39867C168.7 1.4408 168.717 1.48292 168.717 1.53348C168.717 1.60931 168.691 1.67672 168.632 1.72727C168.572 1.77783 168.462 1.8031 168.3 1.8031L168.292 1.79468Z" fill="#F8F8F8"/>
<path d="M169.779 1.07007C169.634 0.808869 169.43 0.615077 169.175 0.480266C168.92 0.345454 168.648 0.269623 168.376 0.269623C168.104 0.269623 167.841 0.337029 167.577 0.480266C167.322 0.615077 167.118 0.817295 166.974 1.07007C166.829 1.33126 166.753 1.59246 166.753 1.87894C166.753 2.16541 166.821 2.41818 166.965 2.67938C167.11 2.93215 167.305 3.13437 167.569 3.27761C167.824 3.42084 168.096 3.48825 168.376 3.48825C168.657 3.48825 168.929 3.42084 169.184 3.27761C169.439 3.13437 169.643 2.94058 169.779 2.67938C169.923 2.42661 169.991 2.15698 169.991 1.87894C169.991 1.60089 169.923 1.33126 169.77 1.07007H169.779ZM169.549 2.54457C169.43 2.75521 169.26 2.92372 169.048 3.04168C168.835 3.15964 168.606 3.21862 168.376 3.21862C168.147 3.21862 167.917 3.15964 167.705 3.04168C167.492 2.92372 167.322 2.75521 167.203 2.54457C167.084 2.33392 167.025 2.11486 167.025 1.87894C167.025 1.64302 167.084 1.42395 167.203 1.20488C167.322 0.985809 167.492 0.82572 167.705 0.70776C167.917 0.5898 168.138 0.53082 168.368 0.53082C168.597 0.53082 168.818 0.5898 169.031 0.70776C169.243 0.82572 169.413 0.985809 169.532 1.20488C169.651 1.42395 169.711 1.64302 169.711 1.87894C169.711 2.11486 169.651 2.33392 169.532 2.54457H169.549Z" fill="#F8F8F8"/>
<path d="M66.878 9.51264C68.0255 8.64479 68.731 7.31353 68.731 5.81375V5.0133C68.731 2.40976 66.5805 0.311752 63.784 0.311752H43.877V18.7135H63.784C66.572 18.7135 68.8245 16.6155 68.8245 14.012V13.2115C68.8245 11.7118 68.051 10.3468 66.878 9.51264ZM47.158 3.23548H65.5775V7.72639H47.158V3.23548ZM65.603 15.5118H47.107V11.1135H65.603V15.5118Z" fill="#F8F8F8"/>
</svg>
