<svg width="27" height="20" viewBox="0 0 27 20" fill="none" xmlns="http://www.w3.org/2000/svg">
<path d="M0.931984 20C0.684167 19.9981 0.447131 19.8984 0.27255 19.7225C0.0979691 19.5466 0 19.3088 0 19.061C0 18.8132 0.0979691 18.5754 0.27255 18.3995C0.447131 18.2236 0.684167 18.1239 0.931984 18.122H25.9715C26.2194 18.1239 26.4564 18.2236 26.631 18.3995C26.8056 18.5754 26.9035 18.8132 26.9035 19.061C26.9035 19.3088 26.8056 19.5466 26.631 19.7225C26.4564 19.8984 26.2194 19.9981 25.9715 20H0.931984ZM0.931984 10.939C0.684167 10.9371 0.447131 10.8374 0.27255 10.6615C0.0979691 10.4856 0 10.2478 0 9.99997C0 9.75215 0.0979691 9.51437 0.27255 9.33848C0.447131 9.16259 0.684167 9.06284 0.931984 9.06099H25.9715C26.2194 9.06284 26.4564 9.16259 26.631 9.33848C26.8056 9.51437 26.9035 9.75215 26.9035 9.99997C26.9035 10.2478 26.8056 10.4856 26.631 10.6615C26.4564 10.8374 26.2194 10.9371 25.9715 10.939H0.931984ZM0.931984 1.87797C0.684167 1.87611 0.447131 1.77637 0.27255 1.60048C0.0979691 1.42458 0 1.18681 0 0.938983C0 0.69116 0.0979691 0.453384 0.27255 0.277492C0.447131 0.1016 0.684167 0.00185433 0.931984 0H25.9715C26.2194 0.00185433 26.4564 0.1016 26.631 0.277492C26.8056 0.453384 26.9035 0.69116 26.9035 0.938983C26.9035 1.18681 26.8056 1.42458 26.631 1.60048C26.4564 1.77637 26.2194 1.87611 25.9715 1.87797H0.931984Z" fill="white"/>
</svg>
