<svg width="140" height="140" viewBox="0 0 140 140" fill="none" xmlns="http://www.w3.org/2000/svg">
<g filter="url(#filter0_f_0_1)">
<rect x="5" y="5" width="130" height="130" rx="18" fill="url(#paint0_linear_0_1)"/>
<rect x="5.5" y="5.5" width="129" height="129" rx="17.5" stroke="url(#paint1_linear_0_1)"/>
</g>
<rect x="8.37012" y="8.37012" width="122.778" height="122.778" rx="16" fill="url(#paint2_linear_0_1)"/>
<path d="M44.5053 72.2727C44.5053 74.1364 44.1644 75.7386 43.4826 77.0795C42.8008 78.4148 41.8661 79.4432 40.6786 80.1648C39.4968 80.8807 38.1531 81.2386 36.6474 81.2386C35.136 81.2386 33.7866 80.8807 32.5991 80.1648C31.4173 79.4432 30.4854 78.4119 29.8036 77.071C29.1218 75.7301 28.7809 74.1307 28.7809 72.2727C28.7809 70.4091 29.1218 68.8097 29.8036 67.4744C30.4854 66.1335 31.4173 65.1051 32.5991 64.3892C33.7866 63.6676 35.136 63.3068 36.6474 63.3068C38.1531 63.3068 39.4968 63.6676 40.6786 64.3892C41.8661 65.1051 42.8008 66.1335 43.4826 67.4744C44.1644 68.8097 44.5053 70.4091 44.5053 72.2727ZM41.8974 72.2727C41.8974 70.8523 41.6673 69.6562 41.207 68.6847C40.7525 67.7074 40.1275 66.9688 39.332 66.4688C38.5423 65.9631 37.6474 65.7102 36.6474 65.7102C35.6417 65.7102 34.744 65.9631 33.9542 66.4688C33.1644 66.9688 32.5394 67.7074 32.0792 68.6847C31.6246 69.6562 31.3974 70.8523 31.3974 72.2727C31.3974 73.6932 31.6246 74.892 32.0792 75.8693C32.5394 76.8409 33.1644 77.5795 33.9542 78.0852C34.744 78.5852 35.6417 78.8352 36.6474 78.8352C37.6474 78.8352 38.5423 78.5852 39.332 78.0852C40.1275 77.5795 40.7525 76.8409 41.207 75.8693C41.6673 74.892 41.8974 73.6932 41.8974 72.2727ZM47.7887 81V63.5455H54.1808C55.4194 63.5455 56.445 63.75 57.2575 64.1591C58.07 64.5625 58.6779 65.1108 59.0813 65.804C59.4847 66.4915 59.6864 67.267 59.6864 68.1307C59.6864 68.858 59.5529 69.4716 59.2859 69.9716C59.0188 70.4659 58.6609 70.8636 58.212 71.1648C57.7688 71.4602 57.2802 71.6761 56.7461 71.8125V71.983C57.3256 72.0114 57.891 72.1989 58.4421 72.5455C58.9989 72.8864 59.4592 73.3722 59.8228 74.0028C60.1864 74.6335 60.3683 75.4006 60.3683 76.304C60.3683 77.196 60.158 77.9972 59.7376 78.7074C59.3228 79.4119 58.6808 79.9716 57.8114 80.3864C56.9421 80.7955 55.8313 81 54.479 81H47.7887ZM50.4222 78.7415H54.2234C55.4847 78.7415 56.3881 78.4972 56.9336 78.0085C57.479 77.5199 57.7518 76.9091 57.7518 76.1761C57.7518 75.625 57.6126 75.1193 57.3342 74.6591C57.0558 74.1989 56.658 73.8324 56.141 73.5597C55.6296 73.2869 55.0217 73.1506 54.3171 73.1506H50.4222V78.7415ZM50.4222 71.0966H53.9506C54.5415 71.0966 55.0728 70.983 55.5444 70.7557C56.0217 70.5284 56.3995 70.2102 56.6779 69.8011C56.962 69.3864 57.104 68.8977 57.104 68.3352C57.104 67.6136 56.8512 67.0085 56.3455 66.5199C55.8398 66.0312 55.0643 65.7869 54.0188 65.7869H50.4222V71.0966ZM69.1424 81H63.4918V63.5455H69.3214C71.0316 63.5455 72.5004 63.8949 73.7276 64.5938C74.9549 65.2869 75.8952 66.2841 76.5487 67.5852C77.2077 68.8807 77.5373 70.4347 77.5373 72.2472C77.5373 74.0653 77.2049 75.6278 76.5401 76.9347C75.881 78.2415 74.9265 79.2472 73.6765 79.9517C72.4265 80.6506 70.9151 81 69.1424 81ZM66.1254 78.6989H68.9975C70.3271 78.6989 71.4322 78.4489 72.3129 77.9489C73.1935 77.4432 73.8526 76.7131 74.2901 75.7585C74.7276 74.7983 74.9464 73.6278 74.9464 72.2472C74.9464 70.8778 74.7276 69.7159 74.2901 68.7614C73.8583 67.8068 73.2134 67.0824 72.3555 66.5881C71.4975 66.0937 70.4322 65.8466 69.1594 65.8466H66.1254V78.6989ZM95.3093 69.2216H92.6502C92.5479 68.6534 92.3576 68.1534 92.0792 67.7216C91.8008 67.2898 91.4599 66.9233 91.0565 66.6222C90.6531 66.321 90.2013 66.0937 89.7013 65.9403C89.207 65.7869 88.6815 65.7102 88.1246 65.7102C87.119 65.7102 86.2184 65.9631 85.4229 66.4688C84.6332 66.9744 84.0082 67.7159 83.5479 68.6932C83.0934 69.6705 82.8661 70.8636 82.8661 72.2727C82.8661 73.6932 83.0934 74.892 83.5479 75.8693C84.0082 76.8466 84.636 77.5852 85.4315 78.0852C86.2269 78.5852 87.1218 78.8352 88.1161 78.8352C88.6673 78.8352 89.19 78.7614 89.6843 78.6136C90.1843 78.4602 90.636 78.2358 91.0394 77.9403C91.4428 77.6449 91.7837 77.2841 92.0621 76.858C92.3462 76.4261 92.5423 75.9318 92.6502 75.375L95.3093 75.3835C95.1673 76.2415 94.8917 77.0312 94.4826 77.7528C94.0792 78.4688 93.5593 79.0881 92.9229 79.6108C92.2923 80.1278 91.5707 80.5284 90.7582 80.8125C89.9457 81.0966 89.0593 81.2386 88.0991 81.2386C86.5877 81.2386 85.2411 80.8807 84.0593 80.1648C82.8775 79.4432 81.9457 78.4119 81.2638 77.071C80.5877 75.7301 80.2496 74.1307 80.2496 72.2727C80.2496 70.4091 80.5906 68.8097 81.2724 67.4744C81.9542 66.1335 82.886 65.1051 84.0678 64.3892C85.2496 63.6676 86.5934 63.3068 88.0991 63.3068C89.0252 63.3068 89.8888 63.4403 90.69 63.7074C91.4968 63.9687 92.2212 64.3551 92.8633 64.8665C93.5053 65.3722 94.0366 65.9915 94.457 66.7244C94.8775 67.4517 95.1616 68.2841 95.3093 69.2216ZM102.151 73.1932V66.9034H105.296C105.603 66.9034 105.909 66.9801 106.216 67.1335C106.529 67.2812 106.787 67.5085 106.992 67.8153C107.202 68.1165 107.307 68.4915 107.307 68.9403C107.307 69.3949 107.199 69.7812 106.983 70.0994C106.767 70.4176 106.498 70.6591 106.174 70.8239C105.85 70.9886 105.526 71.071 105.202 71.071H102.969V69.9886H104.81C105.015 69.9886 105.216 69.9006 105.415 69.7244C105.62 69.5483 105.722 69.2869 105.722 68.9403C105.722 68.5767 105.62 68.3267 105.415 68.1903C105.216 68.054 105.023 67.9858 104.836 67.9858H103.617V73.1932H102.151ZM106.02 70.2443L107.546 73.1932H105.935L104.469 70.2443H106.02ZM104.563 76.9432C103.62 76.9432 102.736 76.767 101.912 76.4148C101.088 76.0625 100.364 75.5739 99.739 74.9489C99.114 74.3239 98.6254 73.5994 98.2731 72.7756C97.9208 71.9517 97.7447 71.0682 97.7447 70.125C97.7447 69.1818 97.9208 68.2983 98.2731 67.4744C98.6254 66.6506 99.114 65.9261 99.739 65.3011C100.364 64.6761 101.088 64.1875 101.912 63.8352C102.736 63.483 103.62 63.3068 104.563 63.3068C105.506 63.3068 106.39 63.483 107.213 63.8352C108.037 64.1875 108.762 64.6761 109.387 65.3011C110.012 65.9261 110.5 66.6506 110.853 67.4744C111.205 68.2983 111.381 69.1818 111.381 70.125C111.381 71.0682 111.205 71.9517 110.853 72.7756C110.5 73.5994 110.012 74.3239 109.387 74.9489C108.762 75.5739 108.037 76.0625 107.213 76.4148C106.39 76.767 105.506 76.9432 104.563 76.9432ZM104.563 75.2557C105.506 75.2557 106.364 75.0256 107.137 74.5653C107.915 74.0994 108.534 73.4801 108.995 72.7074C109.455 71.929 109.685 71.0682 109.685 70.125C109.685 69.1818 109.455 68.3239 108.995 67.5511C108.534 66.7727 107.915 66.1534 107.137 65.6932C106.364 65.2273 105.506 64.9943 104.563 64.9943C103.62 64.9943 102.759 65.2273 101.98 65.6932C101.202 66.1534 100.583 66.7727 100.123 67.5511C99.6623 68.3239 99.4322 69.1818 99.4322 70.125C99.4322 71.0682 99.6623 71.929 100.123 72.7074C100.583 73.4801 101.202 74.0994 101.98 74.5653C102.759 75.0256 103.62 75.2557 104.563 75.2557Z" fill="#080B36"/>
<defs>
<filter id="filter0_f_0_1" x="0" y="0" width="140" height="140" filterUnits="userSpaceOnUse" color-interpolation-filters="sRGB">
<feFlood flood-opacity="0" result="BackgroundImageFix"/>
<feBlend mode="normal" in="SourceGraphic" in2="BackgroundImageFix" result="shape"/>
<feGaussianBlur stdDeviation="2.5" result="effect1_foregroundBlur_0_1"/>
</filter>
<linearGradient id="paint0_linear_0_1" x1="70" y1="5" x2="70" y2="135" gradientUnits="userSpaceOnUse">
<stop stop-color="#E6E6E6"/>
<stop offset="0.25" stop-color="#6733EC"/>
<stop offset="0.5" stop-color="#AF56F4"/>
<stop offset="1" stop-color="#12F3DA"/>
</linearGradient>
<linearGradient id="paint1_linear_0_1" x1="70" y1="5" x2="70" y2="135" gradientUnits="userSpaceOnUse">
<stop stop-color="white"/>
<stop offset="0.25" stop-color="#6B34EC"/>
<stop offset="0.5" stop-color="#AF55F4"/>
<stop offset="1" stop-color="#17EEDB"/>
</linearGradient>
<linearGradient id="paint2_linear_0_1" x1="8.37012" y1="8.37012" x2="131.148" y2="131.148" gradientUnits="userSpaceOnUse">
<stop offset="0.372849" stop-color="#ECF8F7"/>
<stop offset="0.686425" stop-color="#B2B6CB"/>
<stop offset="1" stop-color="#7E86B0"/>
</linearGradient>
</defs>
</svg>
