<svg width="140" height="140" viewBox="0 0 140 140" fill="none" xmlns="http://www.w3.org/2000/svg">
<g filter="url(#filter0_f_0_1)">
<rect x="5" y="5" width="130" height="130" rx="18" fill="url(#paint0_linear_0_1)"/>
<rect x="5.5" y="5.5" width="129" height="129" rx="17.5" stroke="url(#paint1_linear_0_1)"/>
</g>
<rect x="8.37012" y="8.37012" width="122.778" height="122.778" rx="16" fill="url(#paint2_linear_0_1)"/>
<path d="M34.1069 72.2727C34.1069 74.1364 33.766 75.7386 33.0842 77.0795C32.4023 78.4148 31.4677 79.4432 30.2802 80.1648C29.0984 80.8807 27.7546 81.2386 26.2489 81.2386C24.7376 81.2386 23.3881 80.8807 22.2006 80.1648C21.0188 79.4432 20.087 78.4119 19.4052 77.071C18.7234 75.7301 18.3825 74.1307 18.3825 72.2727C18.3825 70.4091 18.7234 68.8097 19.4052 67.4744C20.087 66.1335 21.0188 65.1051 22.2006 64.3892C23.3881 63.6676 24.7376 63.3068 26.2489 63.3068C27.7546 63.3068 29.0984 63.6676 30.2802 64.3892C31.4677 65.1051 32.4023 66.1335 33.0842 67.4744C33.766 68.8097 34.1069 70.4091 34.1069 72.2727ZM31.4989 72.2727C31.4989 70.8523 31.2688 69.6562 30.8086 68.6847C30.354 67.7074 29.729 66.9688 28.9336 66.4688C28.1438 65.9631 27.2489 65.7102 26.2489 65.7102C25.2433 65.7102 24.3455 65.9631 23.5558 66.4688C22.766 66.9688 22.141 67.7074 21.6808 68.6847C21.2262 69.6562 20.9989 70.8523 20.9989 72.2727C20.9989 73.6932 21.2262 74.892 21.6808 75.8693C22.141 76.8409 22.766 77.5795 23.5558 78.0852C24.3455 78.5852 25.2433 78.8352 26.2489 78.8352C27.2489 78.8352 28.1438 78.5852 28.9336 78.0852C29.729 77.5795 30.354 76.8409 30.8086 75.8693C31.2688 74.892 31.4989 73.6932 31.4989 72.2727ZM37.1857 81V67.9091H39.6488V69.9886H39.7852C40.0238 69.2841 40.4442 68.7301 41.0465 68.3267C41.6545 67.9176 42.342 67.7131 43.109 67.7131C43.2681 67.7131 43.4556 67.7187 43.6715 67.7301C43.8931 67.7415 44.0664 67.7557 44.1914 67.7727V70.2102C44.0891 70.1818 43.9073 70.1506 43.646 70.1165C43.3846 70.0767 43.1232 70.0568 42.8619 70.0568C42.2596 70.0568 41.7227 70.1847 41.2511 70.4403C40.7852 70.6903 40.4158 71.0398 40.1431 71.4886C39.8704 71.9318 39.734 72.4375 39.734 73.0057V81H37.1857ZM46.6012 81V63.5455H49.1495V70.0312H49.3029C49.4506 69.7585 49.6637 69.4432 49.9421 69.0852C50.2205 68.7273 50.6069 68.4148 51.1012 68.1477C51.5955 67.875 52.2489 67.7386 53.0614 67.7386C54.1183 67.7386 55.0614 68.0057 55.891 68.5398C56.7205 69.0739 57.3711 69.8437 57.8427 70.8494C58.32 71.8551 58.5586 73.0653 58.5586 74.4801C58.5586 75.8949 58.3228 77.108 57.8512 78.1193C57.3796 79.125 56.7319 79.9006 55.908 80.446C55.0842 80.9858 54.1438 81.2557 53.087 81.2557C52.2915 81.2557 51.641 81.1222 51.1353 80.8551C50.6353 80.5881 50.2433 80.2756 49.9592 79.9176C49.6751 79.5597 49.4563 79.2415 49.3029 78.9631H49.0898V81H46.6012ZM49.0984 74.4545C49.0984 75.375 49.2319 76.1818 49.4989 76.875C49.766 77.5682 50.1523 78.1108 50.658 78.5028C51.1637 78.8892 51.783 79.0824 52.516 79.0824C53.2773 79.0824 53.9137 78.8807 54.4251 78.4773C54.9364 78.0682 55.3228 77.5142 55.5842 76.8153C55.8512 76.1165 55.9847 75.3295 55.9847 74.4545C55.9847 73.5909 55.854 72.8153 55.5927 72.1278C55.337 71.4403 54.9506 70.8977 54.4336 70.5C53.9222 70.1023 53.283 69.9034 52.516 69.9034C51.7773 69.9034 51.1523 70.0937 50.641 70.4744C50.1353 70.8551 49.7518 71.3864 49.4904 72.0682C49.229 72.75 49.0984 73.5455 49.0984 74.4545ZM61.4201 81V67.9091H63.9684V81H61.4201ZM62.707 65.8892C62.2638 65.8892 61.8832 65.7415 61.565 65.446C61.2525 65.1449 61.0962 64.7869 61.0962 64.3722C61.0962 63.9517 61.2525 63.5937 61.565 63.2983C61.8832 62.9972 62.2638 62.8466 62.707 62.8466C63.1502 62.8466 63.5281 62.9972 63.8406 63.2983C64.1587 63.5937 64.3178 63.9517 64.3178 64.3722C64.3178 64.7869 64.1587 65.1449 63.8406 65.446C63.5281 65.7415 63.1502 65.8892 62.707 65.8892ZM73.5075 67.9091V69.9545H66.3569V67.9091H73.5075ZM68.2745 64.7727H70.8228V77.1562C70.8228 77.6506 70.8967 78.0227 71.0444 78.2727C71.1921 78.517 71.3825 78.6847 71.6154 78.7756C71.854 78.8608 72.1126 78.9034 72.391 78.9034C72.5955 78.9034 72.7745 78.8892 72.9279 78.8608C73.0813 78.8324 73.2006 78.8097 73.2859 78.7926L73.7461 80.8977C73.5984 80.9545 73.3881 81.0114 73.1154 81.0682C72.8427 81.1307 72.5018 81.1648 72.0927 81.1705C71.4222 81.1818 70.7972 81.0625 70.2177 80.8125C69.6381 80.5625 69.1694 80.1761 68.8114 79.6534C68.4535 79.1307 68.2745 78.4744 68.2745 77.6847V64.7727ZM80.136 81.2898C79.3065 81.2898 78.5565 81.1364 77.886 80.8295C77.2156 80.517 76.6843 80.0653 76.2923 79.4744C75.9059 78.8835 75.7127 78.1591 75.7127 77.3011C75.7127 76.5625 75.8548 75.9545 76.1388 75.4773C76.4229 75 76.8065 74.6222 77.2894 74.3438C77.7724 74.0653 78.3121 73.8551 78.9087 73.7131C79.5053 73.571 80.1133 73.4631 80.7326 73.3892C81.5167 73.2983 82.1531 73.2244 82.6417 73.1676C83.1303 73.1051 83.4854 73.0057 83.707 72.8693C83.9286 72.733 84.0394 72.5114 84.0394 72.2045V72.1449C84.0394 71.4006 83.8292 70.8239 83.4087 70.4148C82.994 70.0057 82.3746 69.8011 81.5508 69.8011C80.6928 69.8011 80.0167 69.9915 79.5224 70.3722C79.0337 70.7472 78.6957 71.1648 78.5082 71.625L76.1133 71.0795C76.3974 70.2841 76.8121 69.642 77.3576 69.1534C77.9087 68.6591 78.5423 68.3011 79.2582 68.0795C79.9741 67.8523 80.7269 67.7386 81.5167 67.7386C82.0394 67.7386 82.5934 67.8011 83.1786 67.9261C83.7695 68.0455 84.3207 68.267 84.832 68.5909C85.3491 68.9148 85.7724 69.3778 86.1019 69.9801C86.4315 70.5767 86.5962 71.3523 86.5962 72.3068V81H84.1076V79.2102H84.0053C83.8406 79.5398 83.5934 79.8636 83.2638 80.1818C82.9343 80.5 82.511 80.7642 81.994 80.9744C81.4769 81.1847 80.8576 81.2898 80.136 81.2898ZM80.69 79.2443C81.3945 79.2443 81.9968 79.1051 82.4968 78.8267C83.0025 78.5483 83.386 78.1847 83.6474 77.7358C83.9144 77.2812 84.0479 76.7955 84.0479 76.2784V74.5909C83.957 74.6818 83.7809 74.767 83.5195 74.8466C83.2638 74.9205 82.9712 74.9858 82.6417 75.0426C82.3121 75.0937 81.9911 75.142 81.6786 75.1875C81.3661 75.2273 81.1048 75.2614 80.8945 75.2898C80.4002 75.3523 79.9485 75.4574 79.5394 75.6051C79.136 75.7528 78.8121 75.9659 78.5678 76.2443C78.3292 76.517 78.2099 76.8807 78.2099 77.3352C78.2099 77.9659 78.4428 78.4432 78.9087 78.767C79.3746 79.0852 79.9684 79.2443 80.69 79.2443ZM92.5387 63.5455V81H89.9904V63.5455H92.5387ZM101.609 81.2642C100.319 81.2642 99.2085 80.9886 98.2766 80.4375C97.3505 79.8807 96.6346 79.0994 96.1289 78.0938C95.6289 77.0824 95.3789 75.8977 95.3789 74.5398C95.3789 73.1989 95.6289 72.017 96.1289 70.9943C96.6346 69.9716 97.3391 69.1733 98.2425 68.5994C99.1516 68.0256 100.214 67.7386 101.43 67.7386C102.169 67.7386 102.885 67.8608 103.578 68.1051C104.271 68.3494 104.893 68.733 105.444 69.2557C105.995 69.7784 106.43 70.4574 106.748 71.2926C107.066 72.1222 107.225 73.1307 107.225 74.3182V75.2216H96.8192V73.3125H104.728C104.728 72.642 104.592 72.0483 104.319 71.5312C104.047 71.0085 103.663 70.5966 103.169 70.2955C102.68 69.9943 102.106 69.8438 101.447 69.8438C100.731 69.8438 100.106 70.0199 99.5721 70.3722C99.0437 70.7187 98.6346 71.1733 98.3448 71.7358C98.0607 72.2926 97.9187 72.8977 97.9187 73.5511V75.0426C97.9187 75.9176 98.0721 76.6619 98.3789 77.2756C98.6914 77.8892 99.1261 78.358 99.6829 78.6818C100.24 79 100.89 79.1591 101.635 79.1591C102.118 79.1591 102.558 79.0909 102.956 78.9545C103.353 78.8125 103.697 78.6023 103.987 78.3239C104.277 78.0455 104.498 77.7017 104.652 77.2926L107.064 77.7273C106.87 78.4375 106.524 79.0597 106.024 79.5938C105.529 80.1222 104.907 80.5341 104.157 80.8295C103.413 81.1193 102.564 81.2642 101.609 81.2642ZM113.549 73.1932V66.9034H116.694C117.001 66.9034 117.308 66.9801 117.615 67.1335C117.927 67.2812 118.186 67.5085 118.39 67.8153C118.6 68.1165 118.706 68.4915 118.706 68.9403C118.706 69.3949 118.598 69.7812 118.382 70.0994C118.166 70.4176 117.896 70.6591 117.572 70.8239C117.248 70.9886 116.924 71.071 116.6 71.071H114.368V69.9886H116.208C116.413 69.9886 116.615 69.9006 116.814 69.7244C117.018 69.5483 117.12 69.2869 117.12 68.9403C117.12 68.5767 117.018 68.3267 116.814 68.1903C116.615 68.054 116.422 67.9858 116.234 67.9858H115.015V73.1932H113.549ZM117.419 70.2443L118.944 73.1932H117.333L115.868 70.2443H117.419ZM115.961 76.9432C115.018 76.9432 114.135 76.767 113.311 76.4148C112.487 76.0625 111.762 75.5739 111.137 74.9489C110.512 74.3239 110.024 73.5994 109.672 72.7756C109.319 71.9517 109.143 71.0682 109.143 70.125C109.143 69.1818 109.319 68.2983 109.672 67.4744C110.024 66.6506 110.512 65.9261 111.137 65.3011C111.762 64.6761 112.487 64.1875 113.311 63.8352C114.135 63.483 115.018 63.3068 115.961 63.3068C116.904 63.3068 117.788 63.483 118.612 63.8352C119.436 64.1875 120.16 64.6761 120.785 65.3011C121.41 65.9261 121.899 66.6506 122.251 67.4744C122.603 68.2983 122.779 69.1818 122.779 70.125C122.779 71.0682 122.603 71.9517 122.251 72.7756C121.899 73.5994 121.41 74.3239 120.785 74.9489C120.16 75.5739 119.436 76.0625 118.612 76.4148C117.788 76.767 116.904 76.9432 115.961 76.9432ZM115.961 75.2557C116.904 75.2557 117.762 75.0256 118.535 74.5653C119.314 74.0994 119.933 73.4801 120.393 72.7074C120.853 71.929 121.083 71.0682 121.083 70.125C121.083 69.1818 120.853 68.3239 120.393 67.5511C119.933 66.7727 119.314 66.1534 118.535 65.6932C117.762 65.2273 116.904 64.9943 115.961 64.9943C115.018 64.9943 114.157 65.2273 113.379 65.6932C112.6 66.1534 111.981 66.7727 111.521 67.5511C111.061 68.3239 110.831 69.1818 110.831 70.125C110.831 71.0682 111.061 71.929 111.521 72.7074C111.981 73.4801 112.6 74.0994 113.379 74.5653C114.157 75.0256 115.018 75.2557 115.961 75.2557Z" fill="#080B36"/>
<defs>
<filter id="filter0_f_0_1" x="0" y="0" width="140" height="140" filterUnits="userSpaceOnUse" color-interpolation-filters="sRGB">
<feFlood flood-opacity="0" result="BackgroundImageFix"/>
<feBlend mode="normal" in="SourceGraphic" in2="BackgroundImageFix" result="shape"/>
<feGaussianBlur stdDeviation="2.5" result="effect1_foregroundBlur_0_1"/>
</filter>
<linearGradient id="paint0_linear_0_1" x1="70" y1="5" x2="70" y2="135" gradientUnits="userSpaceOnUse">
<stop stop-color="#E6E6E6"/>
<stop offset="0.25" stop-color="#6733EC"/>
<stop offset="0.5" stop-color="#AF56F4"/>
<stop offset="1" stop-color="#12F3DA"/>
</linearGradient>
<linearGradient id="paint1_linear_0_1" x1="70" y1="5" x2="70" y2="135" gradientUnits="userSpaceOnUse">
<stop stop-color="white"/>
<stop offset="0.25" stop-color="#6B34EC"/>
<stop offset="0.5" stop-color="#AF55F4"/>
<stop offset="1" stop-color="#17EEDB"/>
</linearGradient>
<linearGradient id="paint2_linear_0_1" x1="8.37012" y1="8.37012" x2="131.148" y2="131.148" gradientUnits="userSpaceOnUse">
<stop offset="0.372849" stop-color="#ECF8F7"/>
<stop offset="0.686425" stop-color="#B2B6CB"/>
<stop offset="1" stop-color="#7E86B0"/>
</linearGradient>
</defs>
</svg>
