<svg width="55" height="55" viewBox="0 0 55 55" fill="none" xmlns="http://www.w3.org/2000/svg">
<rect width="55" height="55" rx="8" fill="#393C5E"/>
<path fill-rule="evenodd" clip-rule="evenodd" d="M28.17 28.1844V32.4141L27.9684 32.938H25.6519L25.106 31.5196C24.569 31.3924 24.0506 31.2043 23.5585 30.9611C23.323 29.0173 21.8554 27.4394 19.9658 27.0388C19.8445 26.7275 19.7444 26.4077 19.666 26.0819L18.2476 25.536V23.2195L19.666 22.6736C19.8479 21.9155 20.1465 21.1946 20.5547 20.5321L19.9366 19.1417L21.5742 17.5041L22.9645 18.1223C23.6271 17.714 24.3479 17.4154 25.1037 17.2358L25.6519 15.8151H27.9684L28.5143 17.2358C29.2701 17.4154 29.991 17.714 30.6535 18.1223L32.0439 17.5041L33.6815 19.1417L33.0656 20.5321C33.4738 21.1946 33.7725 21.9155 33.9521 22.6736L35.3359 23.2062C34.9414 23.3936 34.6048 23.6834 34.3604 24.0411H33.2154C32.6346 24.0411 32.1637 24.5119 32.1637 25.0927V25.1507H30.7777C30.8263 24.9002 30.8518 24.6413 30.8518 24.3766C30.8518 22.1441 29.0415 20.3361 26.809 20.3361C24.5765 20.3361 22.7686 22.1441 22.7686 24.3766C22.7686 26.6091 24.5765 28.4193 26.809 28.4193C27.2866 28.4193 27.7448 28.3365 28.17 28.1844ZM14.9252 13C16.5396 13 17.8503 14.3108 17.8503 15.9252C17.8503 17.5396 16.5396 18.8503 14.9252 18.8503C13.3107 18.8503 12 17.5396 12 15.9252C12 14.3108 13.3107 13 14.9252 13ZM13.333 16.3707L14.0448 17.0814C14.2431 17.2794 14.5619 17.287 14.7695 17.0988L16.499 15.5307C16.714 15.3357 16.7303 15.0029 16.5354 14.7879C16.3404 14.5729 16.0076 14.5566 15.7926 14.7516L14.4337 15.9837L14.076 15.6265C13.8706 15.4215 13.5374 15.4218 13.3324 15.6272C13.1273 15.8326 13.1276 16.1657 13.333 16.3707ZM38.7448 13C40.3592 13 41.6699 14.3108 41.6699 15.9252C41.6699 17.5396 40.3592 18.8503 38.7448 18.8503C37.1303 18.8503 35.8196 17.5396 35.8196 15.9252C35.8196 14.3108 37.1303 13 38.7448 13ZM37.1526 16.3707L37.8644 17.0814C38.0627 17.2794 38.3815 17.287 38.5891 17.0988L40.3186 15.5307C40.5336 15.3357 40.5499 15.0029 40.355 14.7879C40.1601 14.5729 39.8272 14.5566 39.6122 14.7516L38.2533 15.9837L37.8956 15.6265C37.6903 15.4215 37.357 15.4218 37.152 15.6272C36.9469 15.8326 36.9473 16.1657 37.1526 16.3707ZM40.6076 26.2024H42.7257C43.1791 26.2024 43.5496 26.5729 43.5496 27.0263V42.1771C43.5496 42.6305 43.1791 43 42.7257 43H30.0457C29.5922 43 29.2217 42.6305 29.2217 42.1771V27.0263C29.2217 26.5729 29.5922 26.2024 30.0457 26.2024H32.1637V27.2339C32.1637 27.8146 32.6346 28.2855 33.2154 28.2855H39.556C40.1367 28.2855 40.6076 27.8146 40.6076 27.2339V26.2024ZM36.6063 36.0206H38.438C38.7283 36.0206 38.9639 35.785 38.9639 35.4948C38.9639 35.2046 38.7283 34.969 38.438 34.969H36.6063C36.3161 34.969 36.0805 35.2046 36.0805 35.4948C36.0805 35.785 36.3161 36.0206 36.6063 36.0206ZM32.4014 37.9797C32.12 37.9797 31.8895 38.21 31.8895 38.4915V40.0452C31.8895 40.3278 32.12 40.5582 32.4014 40.5582H33.9551C34.2377 40.5582 34.4681 40.3278 34.4681 40.0452V38.4915C34.4681 38.21 34.2377 37.9797 33.9551 37.9797H32.4014ZM32.4014 33.6216C32.12 33.6216 31.8895 33.8519 31.8895 34.1345V35.6882C31.8895 35.9697 32.12 36.2001 32.4014 36.2001H33.9551C34.2377 36.2001 34.4681 35.9697 34.4681 35.6882V34.1345C34.4681 33.8519 34.2377 33.6216 33.9551 33.6216H32.4014ZM36.6063 30.3805H40.2698C40.5601 30.3805 40.7957 30.1449 40.7957 29.8547C40.7957 29.5645 40.5601 29.3289 40.2698 29.3289H36.6063C36.3161 29.3289 36.0805 29.5645 36.0805 29.8547C36.0805 30.1449 36.3161 30.3805 36.6063 30.3805ZM36.6063 39.0968H40.2698C40.5601 39.0968 40.7957 38.8612 40.7957 38.571C40.7957 38.2807 40.5601 38.0451 40.2698 38.0451H36.6063C36.3161 38.0451 36.0805 38.2807 36.0805 38.571C36.0805 38.8612 36.3161 39.0968 36.6063 39.0968ZM36.6063 40.4927H38.438C38.7283 40.4927 38.9639 40.2571 38.9639 39.9669C38.9639 39.6767 38.7283 39.4411 38.438 39.4411H36.6063C36.3161 39.4411 36.0805 39.6767 36.0805 39.9669C36.0805 40.2571 36.3161 40.4927 36.6063 40.4927ZM32.4014 29.2634C32.12 29.2634 31.8895 29.4938 31.8895 29.7764V31.3301C31.8895 31.6116 32.12 31.8431 32.4014 31.8431H33.9551C34.2377 31.8431 34.4681 31.6116 34.4681 31.3301V29.7764C34.4681 29.4938 34.2377 29.2634 33.9551 29.2634H32.4014ZM36.6063 34.6247H40.2698C40.5601 34.6247 40.7957 34.3891 40.7957 34.0989C40.7957 33.8086 40.5601 33.573 40.2698 33.573H36.6063C36.3161 33.573 36.0805 33.8086 36.0805 34.0989C36.0805 34.3891 36.3161 34.6247 36.6063 34.6247ZM36.6063 31.7765H38.438C38.7283 31.7765 38.9639 31.5409 38.9639 31.2507C38.9639 30.9605 38.7283 30.7248 38.438 30.7248H36.6063C36.3161 30.7248 36.0805 30.9605 36.0805 31.2507C36.0805 31.5409 36.3161 31.7765 36.6063 31.7765ZM33.2154 25.0927H35.0248C35.1729 24.4787 35.726 24.0221 36.3852 24.0221C37.0453 24.0221 37.5984 24.4787 37.7465 25.0927H39.556V27.2339H33.2154V25.0927ZM36.3852 25.5399C36.5898 25.5399 36.7557 25.374 36.7557 25.1704C36.7557 24.9657 36.5898 24.7999 36.3852 24.7999C36.1815 24.7999 36.0157 24.9657 36.0157 25.1704C36.0157 25.374 36.1815 25.5399 36.3852 25.5399ZM22.5399 32.2655H20.9295V31.5107C20.9295 30.4634 20.0685 29.6023 19.0227 29.6023C17.9769 29.6023 17.1158 30.4634 17.1158 31.5107V32.2655H15.5039V31.5107C15.5039 29.5755 17.0875 27.9919 19.0227 27.9919C20.9579 27.9919 22.5399 29.5755 22.5399 31.5107V32.2655ZM14.7159 33.3172H23.3295C23.6841 33.3172 23.9716 33.6062 23.9716 33.9593V40.8061C23.9716 41.1606 23.6841 41.4482 23.3295 41.4482H14.7159C14.3613 41.4482 14.0723 41.1606 14.0723 40.8061V33.9593C14.0723 33.6062 14.3613 33.3172 14.7159 33.3172ZM19.0227 34.9395C18.3315 34.9395 17.7698 35.5011 17.7698 36.1923C17.7698 36.6437 18.0082 37.0385 18.3657 37.259V39.1688C18.3657 39.5309 18.6607 39.8258 19.0227 39.8258C19.3832 39.8258 19.6796 39.5309 19.6796 39.1688V37.259C20.0372 37.0385 20.2741 36.6437 20.2741 36.1923C20.2741 35.5011 19.7139 34.9395 19.0227 34.9395Z" fill="url(#paint0_linear_101_89)"/>
<defs>
<linearGradient id="paint0_linear_101_89" x1="12" y1="13" x2="41.962" y2="44.5096" gradientUnits="userSpaceOnUse">
<stop offset="0.372849" stop-color="#ECF8F7"/>
<stop offset="0.686425" stop-color="#B2B6CB"/>
<stop offset="1" stop-color="#7E86B0"/>
</linearGradient>
</defs>
</svg>
