<svg width="140" height="140" viewBox="0 0 140 140" fill="none" xmlns="http://www.w3.org/2000/svg">
<g filter="url(#filter0_f_0_1)">
<rect x="5" y="5" width="130" height="130" rx="18" fill="url(#paint0_linear_0_1)"/>
<rect x="5.5" y="5.5" width="129" height="129" rx="17.5" stroke="url(#paint1_linear_0_1)"/>
</g>
<rect x="8.37012" y="8.37012" width="122.778" height="122.778" rx="16" fill="url(#paint2_linear_0_1)"/>
<path d="M26.4471 63.5455L31.305 77.7614H31.5011L36.359 63.5455H39.2056L32.9244 81H29.8817L23.6005 63.5455H26.4471ZM45.8512 81.2642C44.5614 81.2642 43.4506 80.9886 42.5188 80.4375C41.5927 79.8807 40.8768 79.0994 40.3711 78.0938C39.8711 77.0824 39.6211 75.8977 39.6211 74.5398C39.6211 73.1989 39.8711 72.017 40.3711 70.9943C40.8768 69.9716 41.5813 69.1733 42.4847 68.5994C43.3938 68.0256 44.4563 67.7386 45.6722 67.7386C46.4109 67.7386 47.1268 67.8608 47.82 68.1051C48.5131 68.3494 49.1353 68.733 49.6864 69.2557C50.2376 69.7784 50.6722 70.4574 50.9904 71.2926C51.3086 72.1222 51.4677 73.1307 51.4677 74.3182V75.2216H41.0614V73.3125H48.9705C48.9705 72.642 48.8342 72.0483 48.5614 71.5312C48.2887 71.0085 47.9052 70.5966 47.4109 70.2955C46.9222 69.9943 46.3484 69.8438 45.6893 69.8438C44.9734 69.8438 44.3484 70.0199 43.8143 70.3722C43.2859 70.7187 42.8768 71.1733 42.587 71.7358C42.3029 72.2926 42.1609 72.8977 42.1609 73.5511V75.0426C42.1609 75.9176 42.3143 76.6619 42.6211 77.2756C42.9336 77.8892 43.3683 78.358 43.9251 78.6818C44.4819 79 45.1325 79.1591 45.8768 79.1591C46.3597 79.1591 46.8001 79.0909 47.1978 78.9545C47.5955 78.8125 47.9393 78.6023 48.229 78.3239C48.5188 78.0455 48.7404 77.7017 48.8938 77.2926L51.3058 77.7273C51.1126 78.4375 50.766 79.0597 50.266 79.5938C49.7717 80.1222 49.1495 80.5341 48.3995 80.8295C47.6552 81.1193 46.8058 81.2642 45.8512 81.2642ZM54.2951 81V67.9091H56.7582V69.9886H56.8945C57.1332 69.2841 57.5536 68.7301 58.1559 68.3267C58.7638 67.9176 59.4513 67.7131 60.2184 67.7131C60.3775 67.7131 60.565 67.7187 60.7809 67.7301C61.0025 67.7415 61.1758 67.7557 61.3008 67.7727V70.2102C61.1985 70.1818 61.0167 70.1506 60.7553 70.1165C60.494 70.0767 60.2326 70.0568 59.9712 70.0568C59.369 70.0568 58.832 70.1847 58.3604 70.4403C57.8945 70.6903 57.5252 71.0398 57.2525 71.4886C56.9798 71.9318 56.8434 72.4375 56.8434 73.0057V81H54.2951ZM67.9379 81.2557C66.881 81.2557 65.9379 80.9858 65.1083 80.446C64.2844 79.9006 63.6367 79.125 63.1651 78.1193C62.6992 77.108 62.4663 75.8949 62.4663 74.4801C62.4663 73.0653 62.7021 71.8551 63.1737 70.8494C63.6509 69.8437 64.3043 69.0739 65.1339 68.5398C65.9634 68.0057 66.9038 67.7386 67.9549 67.7386C68.7674 67.7386 69.4208 67.875 69.9151 68.1477C70.4151 68.4148 70.8015 68.7273 71.0742 69.0852C71.3526 69.4432 71.5685 69.7585 71.7219 70.0312H71.8754V63.5455H74.4237V81H71.935V78.9631H71.7219C71.5685 79.2415 71.3469 79.5597 71.0572 79.9176C70.7731 80.2756 70.381 80.5881 69.881 80.8551C69.381 81.1222 68.7333 81.2557 67.9379 81.2557ZM68.5004 79.0824C69.2333 79.0824 69.8526 78.8892 70.3583 78.5028C70.8697 78.1108 71.256 77.5682 71.5174 76.875C71.7844 76.1818 71.918 75.375 71.918 74.4545C71.918 73.5455 71.7873 72.75 71.5259 72.0682C71.2646 71.3864 70.881 70.8551 70.3754 70.4744C69.8697 70.0937 69.2447 69.9034 68.5004 69.9034C67.7333 69.9034 67.0941 70.1023 66.5827 70.5C66.0714 70.8977 65.685 71.4403 65.4237 72.1278C65.168 72.8153 65.0401 73.5909 65.0401 74.4545C65.0401 75.3295 65.1708 76.1165 65.4322 76.8153C65.6935 77.5142 66.0799 78.0682 66.5913 78.4773C67.1083 78.8807 67.7447 79.0824 68.5004 79.0824ZM81.8704 81.2898C81.0408 81.2898 80.2908 81.1364 79.6204 80.8295C78.9499 80.517 78.4187 80.0653 78.0266 79.4744C77.6403 78.8835 77.4471 78.1591 77.4471 77.3011C77.4471 76.5625 77.5891 75.9545 77.8732 75.4773C78.1573 75 78.5408 74.6222 79.0238 74.3438C79.5067 74.0653 80.0465 73.8551 80.6431 73.7131C81.2397 73.571 81.8477 73.4631 82.467 73.3892C83.2511 73.2983 83.8874 73.2244 84.3761 73.1676C84.8647 73.1051 85.2198 73.0057 85.4414 72.8693C85.663 72.733 85.7738 72.5114 85.7738 72.2045V72.1449C85.7738 71.4006 85.5636 70.8239 85.1431 70.4148C84.7283 70.0057 84.109 69.8011 83.2852 69.8011C82.4272 69.8011 81.7511 69.9915 81.2567 70.3722C80.7681 70.7472 80.43 71.1648 80.2425 71.625L77.8477 71.0795C78.1317 70.2841 78.5465 69.642 79.092 69.1534C79.6431 68.6591 80.2766 68.3011 80.9925 68.0795C81.7085 67.8523 82.4613 67.7386 83.2511 67.7386C83.7738 67.7386 84.3278 67.8011 84.913 67.9261C85.5039 68.0455 86.055 68.267 86.5664 68.5909C87.0835 68.9148 87.5067 69.3778 87.8363 69.9801C88.1658 70.5767 88.3306 71.3523 88.3306 72.3068V81H85.842V79.2102H85.7397C85.5749 79.5398 85.3278 79.8636 84.9982 80.1818C84.6687 80.5 84.2454 80.7642 83.7283 80.9744C83.2113 81.1847 82.592 81.2898 81.8704 81.2898ZM82.4244 79.2443C83.1289 79.2443 83.7312 79.1051 84.2312 78.8267C84.7369 78.5483 85.1204 78.1847 85.3817 77.7358C85.6488 77.2812 85.7823 76.7955 85.7823 76.2784V74.5909C85.6914 74.6818 85.5153 74.767 85.2539 74.8466C84.9982 74.9205 84.7056 74.9858 84.3761 75.0426C84.0465 75.0937 83.7255 75.142 83.413 75.1875C83.1005 75.2273 82.8391 75.2614 82.6289 75.2898C82.1346 75.3523 81.6829 75.4574 81.2738 75.6051C80.8704 75.7528 80.5465 75.9659 80.3022 76.2443C80.0636 76.517 79.9442 76.8807 79.9442 77.3352C79.9442 77.9659 80.1772 78.4432 80.6431 78.767C81.109 79.0852 81.7028 79.2443 82.4244 79.2443ZM91.7248 67.9091H94.2731V81.8523C94.2731 82.7273 94.114 83.4659 93.7958 84.0682C93.4833 84.6705 93.0174 85.1278 92.3981 85.4403C91.7844 85.7528 91.0259 85.9091 90.1225 85.9091C90.0316 85.9091 89.9464 85.9091 89.8668 85.9091C89.7816 85.9091 89.6935 85.9063 89.6026 85.9006V83.7102C89.6822 83.7102 89.7532 83.7102 89.8157 83.7102C89.8725 83.7102 89.9379 83.7102 90.0117 83.7102C90.614 83.7102 91.0487 83.5483 91.3157 83.2244C91.5884 82.9063 91.7248 82.4432 91.7248 81.8352V67.9091ZM92.9862 65.8892C92.543 65.8892 92.1623 65.7415 91.8441 65.446C91.5316 65.1449 91.3754 64.7869 91.3754 64.3722C91.3754 63.9517 91.5316 63.5937 91.8441 63.2983C92.1623 62.9972 92.543 62.8466 92.9862 62.8466C93.4293 62.8466 93.8072 62.9972 94.1197 63.2983C94.4379 63.5937 94.5969 63.9517 94.5969 64.3722C94.5969 64.7869 94.4379 65.1449 94.1197 65.446C93.8072 65.7415 93.4293 65.8892 92.9862 65.8892ZM97.7013 81V67.9091H100.25V81H97.7013ZM98.9883 65.8892C98.5451 65.8892 98.1644 65.7415 97.8462 65.446C97.5337 65.1449 97.3775 64.7869 97.3775 64.3722C97.3775 63.9517 97.5337 63.5937 97.8462 63.2983C98.1644 62.9972 98.5451 62.8466 98.9883 62.8466C99.4315 62.8466 99.8093 62.9972 100.122 63.2983C100.44 63.5937 100.599 63.9517 100.599 64.3722C100.599 64.7869 100.44 65.1449 100.122 65.446C99.8093 65.7415 99.4315 65.8892 98.9883 65.8892ZM107.573 73.1932V66.9034H110.718C111.025 66.9034 111.331 66.9801 111.638 67.1335C111.951 67.2812 112.209 67.5085 112.414 67.8153C112.624 68.1165 112.729 68.4915 112.729 68.9403C112.729 69.3949 112.621 69.7812 112.405 70.0994C112.189 70.4176 111.919 70.6591 111.596 70.8239C111.272 70.9886 110.948 71.071 110.624 71.071H108.391V69.9886H110.232C110.436 69.9886 110.638 69.9006 110.837 69.7244C111.042 69.5483 111.144 69.2869 111.144 68.9403C111.144 68.5767 111.042 68.3267 110.837 68.1903C110.638 68.054 110.445 67.9858 110.257 67.9858H109.039V73.1932H107.573ZM111.442 70.2443L112.968 73.1932H111.357L109.891 70.2443H111.442ZM109.985 76.9432C109.042 76.9432 108.158 76.767 107.334 76.4148C106.51 76.0625 105.786 75.5739 105.161 74.9489C104.536 74.3239 104.047 73.5994 103.695 72.7756C103.343 71.9517 103.167 71.0682 103.167 70.125C103.167 69.1818 103.343 68.2983 103.695 67.4744C104.047 66.6506 104.536 65.9261 105.161 65.3011C105.786 64.6761 106.51 64.1875 107.334 63.8352C108.158 63.483 109.042 63.3068 109.985 63.3068C110.928 63.3068 111.811 63.483 112.635 63.8352C113.459 64.1875 114.184 64.6761 114.809 65.3011C115.434 65.9261 115.922 66.6506 116.275 67.4744C116.627 68.2983 116.803 69.1818 116.803 70.125C116.803 71.0682 116.627 71.9517 116.275 72.7756C115.922 73.5994 115.434 74.3239 114.809 74.9489C114.184 75.5739 113.459 76.0625 112.635 76.4148C111.811 76.767 110.928 76.9432 109.985 76.9432ZM109.985 75.2557C110.928 75.2557 111.786 75.0256 112.559 74.5653C113.337 74.0994 113.956 73.4801 114.417 72.7074C114.877 71.929 115.107 71.0682 115.107 70.125C115.107 69.1818 114.877 68.3239 114.417 67.5511C113.956 66.7727 113.337 66.1534 112.559 65.6932C111.786 65.2273 110.928 64.9943 109.985 64.9943C109.042 64.9943 108.181 65.2273 107.402 65.6932C106.624 66.1534 106.005 66.7727 105.544 67.5511C105.084 68.3239 104.854 69.1818 104.854 70.125C104.854 71.0682 105.084 71.929 105.544 72.7074C106.005 73.4801 106.624 74.0994 107.402 74.5653C108.181 75.0256 109.042 75.2557 109.985 75.2557Z" fill="#080B36"/>
<defs>
<filter id="filter0_f_0_1" x="0" y="0" width="140" height="140" filterUnits="userSpaceOnUse" color-interpolation-filters="sRGB">
<feFlood flood-opacity="0" result="BackgroundImageFix"/>
<feBlend mode="normal" in="SourceGraphic" in2="BackgroundImageFix" result="shape"/>
<feGaussianBlur stdDeviation="2.5" result="effect1_foregroundBlur_0_1"/>
</filter>
<linearGradient id="paint0_linear_0_1" x1="70" y1="5" x2="70" y2="135" gradientUnits="userSpaceOnUse">
<stop stop-color="#E6E6E6"/>
<stop offset="0.25" stop-color="#6733EC"/>
<stop offset="0.5" stop-color="#AF56F4"/>
<stop offset="1" stop-color="#12F3DA"/>
</linearGradient>
<linearGradient id="paint1_linear_0_1" x1="70" y1="5" x2="70" y2="135" gradientUnits="userSpaceOnUse">
<stop stop-color="white"/>
<stop offset="0.25" stop-color="#6B34EC"/>
<stop offset="0.5" stop-color="#AF55F4"/>
<stop offset="1" stop-color="#17EEDB"/>
</linearGradient>
<linearGradient id="paint2_linear_0_1" x1="8.37012" y1="8.37012" x2="131.148" y2="131.148" gradientUnits="userSpaceOnUse">
<stop offset="0.372849" stop-color="#ECF8F7"/>
<stop offset="0.686425" stop-color="#B2B6CB"/>
<stop offset="1" stop-color="#7E86B0"/>
</linearGradient>
</defs>
</svg>
