<svg width="46" height="45" viewBox="0 0 46 45" fill="none" xmlns="http://www.w3.org/2000/svg">
<path d="M22.7505 10.6426C16.3576 10.6426 11.1791 15.7854 11.1791 22.1426C11.1791 24.6426 12.0005 26.9997 13.3934 28.8926L11.9291 33.1783L16.3934 31.7497C18.2148 32.964 20.4291 33.6426 22.7862 33.6426C29.1791 33.6426 34.3934 28.4997 34.3934 22.1426C34.3577 15.7854 29.1434 10.6426 22.7505 10.6426ZM29.5362 26.8926C29.2505 27.6783 27.8577 28.4283 27.2505 28.4997C26.6434 28.5711 26.6434 28.9997 23.1791 27.6783C19.7505 26.3211 17.5719 22.8569 17.3934 22.6069C17.2148 22.3926 16.0005 20.7854 16.0005 19.1426C16.0005 17.4997 16.8576 16.6783 17.1791 16.3569C17.5005 16.0354 17.8576 15.9283 18.0719 15.9283C18.2862 15.9283 18.5362 15.964 18.7148 15.964C18.9291 15.964 19.1791 15.8569 19.4648 16.5354C19.7505 17.214 20.4291 18.8569 20.5005 19.0354C20.5719 19.214 20.6434 19.3926 20.5362 19.6069C20.4291 19.8211 20.3576 19.964 20.2148 20.1783C20.0362 20.3569 19.8576 20.6069 19.7148 20.7497C19.5362 20.9283 19.3576 21.1069 19.5719 21.4283C19.7862 21.7497 20.4648 22.8569 21.4648 23.7497C22.7505 24.8926 23.8576 25.2497 24.1791 25.4283C24.5005 25.6069 24.7148 25.5712 24.8934 25.3569C25.1076 25.1426 25.7505 24.3926 25.9648 24.0354C26.1791 23.714 26.4291 23.7497 26.7148 23.8569C27.0362 23.964 28.6791 24.7854 29.0362 24.964C29.3577 25.1426 29.6077 25.214 29.6791 25.3569C29.7862 25.4283 29.7862 26.1069 29.5362 26.8926Z" fill="white"/>
<path d="M33.7143 0H11.2857C5.07143 0 0 5.07143 0 11.2857V33.75C0 39.9286 5.07143 45 11.2857 45H33.75C39.9643 45 45.0357 39.9286 45.0357 33.7143V11.2857C45 5.07143 39.9286 0 33.7143 0ZM22.75 35.8214C20.3214 35.8214 18.0714 35.2143 16.0714 34.1071L8.42857 36.5357L10.9286 29.2143C9.67857 27.1429 8.96429 24.7143 8.96429 22.1429C8.96429 14.5714 15.1429 8.46429 22.75 8.46429C30.3571 8.46429 36.5357 14.5714 36.5357 22.1429C36.5357 29.7143 30.3571 35.8214 22.75 35.8214Z" fill="white"/>
</svg>
